<?xml version="1.0" encoding="utf-8"?>
<!-- Generator: Adobe Illustrator 22.0.0, SVG Export Plug-In . SVG Version: 6.00 Build 0)  -->
<svg version="1.1" id="Layer_1" xmlns="http://www.w3.org/2000/svg" xmlns:xlink="http://www.w3.org/1999/xlink" x="0px" y="0px"
	 viewBox="0 0 278.7 197.9" style="enable-background:new 0 0 278.7 197.9;" xml:space="preserve">
<style type="text/css">
	.st0{display:none;}
	.st1{display:inline;fill:#101B32;}
	.st2{fill:#F9E6CD;}
	.st3{fill:#13487E;}
	.st4{fill:#C4E5F9;}
	.st5{fill:#50B1E4;}
	.st6{fill:#948876;}
	.st7{fill:#E6E6E5;}
	.st8{fill:#FFFFFF;}
	.st9{fill:#B36F60;}
	.st10{fill:#EE937F;}
</style>
<g class="st0">
	<path class="st1" d="M-2538-5183.3c-0.2,0.3-0.6,0.4-0.9,0.3l-4.2-3.3c-0.2-0.2-0.2-0.6,0-0.9l0,0c0.2-0.3,0.6-0.4,0.9-0.3l4.2,3.3
		C-2537.7-5184-2537.8-5183.6-2538-5183.3L-2538-5183.3z"/>
	<path class="st1" d="M-2528-5194.9c0.3,0.3,0.3,0.7,0.1,0.9l-10.2,10.9c-0.2,0.2-0.6,0.2-0.9-0.1l0,0c-0.3-0.3-0.3-0.7-0.1-0.9
		l10.2-10.9C-2528.7-5195.2-2528.3-5195.2-2528-5194.9L-2528-5194.9z"/>
</g>
<g class="st0">
	<path class="st1" d="M-6996.4-5147.3c-0.2,0.3-0.6,0.4-0.9,0.3l-4.2-3.3c-0.2-0.2-0.2-0.6,0-0.9l0,0c0.2-0.3,0.6-0.4,0.9-0.3
		l4.2,3.3C-6996.2-5148-6996.2-5147.6-6996.4-5147.3L-6996.4-5147.3z"/>
	<path class="st1" d="M-6986.4-5158.9c0.3,0.3,0.3,0.7,0.1,0.9l-10.2,10.9c-0.2,0.2-0.6,0.2-0.9-0.1l0,0c-0.3-0.3-0.3-0.7-0.1-0.9
		l10.2-10.9C-6987.1-5159.2-6986.7-5159.2-6986.4-5158.9L-6986.4-5158.9z"/>
</g>
<g class="st0">
	<path class="st1" d="M-5427.4-3623.3c-0.2,0.3-0.6,0.4-0.9,0.3l-4.2-3.3c-0.2-0.2-0.2-0.6,0-0.9l0,0c0.2-0.3,0.6-0.4,0.9-0.3
		l4.2,3.3C-5427.2-3624-5427.2-3623.6-5427.4-3623.3L-5427.4-3623.3z"/>
	<path class="st1" d="M-5417.4-3634.9c0.3,0.3,0.3,0.7,0.1,0.9l-10.2,10.9c-0.2,0.2-0.6,0.2-0.9-0.1l0,0c-0.3-0.3-0.3-0.7-0.1-0.9
		l10.2-10.9C-5418.1-3635.2-5417.7-3635.2-5417.4-3634.9L-5417.4-3634.9z"/>
</g>
<g class="st0">
	<path class="st1" d="M-5451.4-3789.3c-0.2,0.3-0.6,0.4-0.9,0.3l-4.2-3.3c-0.2-0.2-0.2-0.6,0-0.9l0,0c0.2-0.3,0.6-0.4,0.9-0.3
		l4.2,3.3C-5451.2-3790-5451.2-3789.6-5451.4-3789.3L-5451.4-3789.3z"/>
	<path class="st1" d="M-5441.4-3800.9c0.3,0.3,0.3,0.7,0.1,0.9l-10.2,10.9c-0.2,0.2-0.6,0.2-0.9-0.1l0,0c-0.3-0.3-0.3-0.7-0.1-0.9
		l10.2-10.9C-5442.1-3801.2-5441.7-3801.2-5441.4-3800.9L-5441.4-3800.9z"/>
</g>
<g class="st0">
	<path class="st1" d="M-5451.4-5147.3c-0.2,0.3-0.6,0.4-0.9,0.3l-4.2-3.3c-0.2-0.2-0.2-0.6,0-0.9l0,0c0.2-0.3,0.6-0.4,0.9-0.3
		l4.2,3.3C-5451.2-5148-5451.2-5147.6-5451.4-5147.3L-5451.4-5147.3z"/>
	<path class="st1" d="M-5441.4-5158.9c0.3,0.3,0.3,0.7,0.1,0.9l-10.2,10.9c-0.2,0.2-0.6,0.2-0.9-0.1l0,0c-0.3-0.3-0.3-0.7-0.1-0.9
		l10.2-10.9C-5442.1-5159.2-5441.7-5159.2-5441.4-5158.9L-5441.4-5158.9z"/>
</g>
<g class="st0">
	<path class="st1" d="M-2377.7-5147.3c-0.2,0.3-0.6,0.4-0.9,0.3l-4.2-3.3c-0.2-0.2-0.2-0.6,0-0.9l0,0c0.2-0.3,0.6-0.4,0.9-0.3
		l4.2,3.3C-2377.5-5148-2377.5-5147.6-2377.7-5147.3L-2377.7-5147.3z"/>
	<path class="st1" d="M-2367.7-5158.9c0.3,0.3,0.3,0.7,0.1,0.9l-10.2,10.9c-0.2,0.2-0.6,0.2-0.9-0.1l0,0c-0.3-0.3-0.3-0.7-0.1-0.9
		l10.2-10.9C-2368.4-5159.2-2368-5159.2-2367.7-5158.9L-2367.7-5158.9z"/>
</g>
<g class="st0">
	<path class="st1" d="M-4395.4-724.3c-0.2,0.3-0.6,0.4-0.9,0.3l-4.2-3.3c-0.2-0.2-0.2-0.6,0-0.9l0,0c0.2-0.3,0.6-0.4,0.9-0.3
		l4.2,3.3C-4395.2-725.1-4395.2-724.7-4395.4-724.3L-4395.4-724.3z"/>
	<path class="st1" d="M-4385.4-736c0.3,0.3,0.3,0.7,0.1,0.9l-10.2,10.9c-0.2,0.2-0.6,0.2-0.9-0.1l0,0c-0.3-0.3-0.3-0.7-0.1-0.9
		l10.2-10.9C-4386.1-736.3-4385.7-736.2-4385.4-736L-4385.4-736z"/>
</g>
<g class="st0">
	<path class="st1" d="M-3955.4-5147.3c-0.2,0.3-0.6,0.4-0.9,0.3l-4.2-3.3c-0.2-0.2-0.2-0.6,0-0.9l0,0c0.2-0.3,0.6-0.4,0.9-0.3
		l4.2,3.3C-3955.2-5148-3955.2-5147.6-3955.4-5147.3L-3955.4-5147.3z"/>
	<path class="st1" d="M-3945.4-5158.9c0.3,0.3,0.3,0.7,0.1,0.9l-10.2,10.9c-0.2,0.2-0.6,0.2-0.9-0.1l0,0c-0.3-0.3-0.3-0.7-0.1-0.9
		l10.2-10.9C-3946.1-5159.2-3945.7-5159.2-3945.4-5158.9L-3945.4-5158.9z"/>
</g>
<g class="st0">
	<path class="st1" d="M-2437.7-2351.3c-0.2,0.3-0.6,0.4-0.9,0.3l-4.2-3.3c-0.2-0.2-0.2-0.6,0-0.9l0,0c0.2-0.3,0.6-0.4,0.9-0.3
		l4.2,3.3C-2437.5-2352-2437.5-2351.6-2437.7-2351.3L-2437.7-2351.3z"/>
	<path class="st1" d="M-2427.7-2362.9c0.3,0.3,0.3,0.7,0.1,0.9l-10.2,10.9c-0.2,0.2-0.6,0.2-0.9-0.1l0,0c-0.3-0.3-0.3-0.7-0.1-0.9
		l10.2-10.9C-2428.4-2363.2-2428-2363.2-2427.7-2362.9L-2427.7-2362.9z"/>
</g>
<g class="st0">
	<path class="st1" d="M-986-5147.3c-0.2,0.3-0.6,0.4-0.9,0.3l-4.2-3.3c-0.2-0.2-0.2-0.6,0-0.9l0,0c0.2-0.3,0.6-0.4,0.9-0.3l4.2,3.3
		C-985.7-5148-985.8-5147.6-986-5147.3L-986-5147.3z"/>
	<path class="st1" d="M-976-5158.9c0.3,0.3,0.3,0.7,0.1,0.9l-10.2,10.9c-0.2,0.2-0.6,0.2-0.9-0.1l0,0c-0.3-0.3-0.3-0.7-0.1-0.9
		l10.2-10.9C-976.7-5159.2-976.3-5159.2-976-5158.9L-976-5158.9z"/>
</g>
<g class="st0">
	<path class="st1" d="M-825.7-5111.3c-0.2,0.3-0.6,0.4-0.9,0.3l-4.2-3.3c-0.2-0.2-0.2-0.6,0-0.9l0,0c0.2-0.3,0.6-0.4,0.9-0.3
		l4.2,3.3C-825.5-5112-825.5-5111.6-825.7-5111.3L-825.7-5111.3z"/>
	<path class="st1" d="M-815.7-5122.9c0.3,0.3,0.3,0.7,0.1,0.9l-10.2,10.9c-0.2,0.2-0.6,0.2-0.9-0.1l0,0c-0.3-0.3-0.3-0.7-0.1-0.9
		l10.2-10.9C-816.4-5123.2-816-5123.2-815.7-5122.9L-815.7-5122.9z"/>
</g>
<g class="st0">
	<path class="st1" d="M-1067.7-3727.3c-0.2,0.3-0.6,0.4-0.9,0.3l-4.2-3.3c-0.2-0.2-0.2-0.6,0-0.9l0,0c0.2-0.3,0.6-0.4,0.9-0.3
		l4.2,3.3C-1067.5-3728-1067.5-3727.6-1067.7-3727.3L-1067.7-3727.3z"/>
	<path class="st1" d="M-1057.7-3738.9c0.3,0.3,0.3,0.7,0.1,0.9l-10.2,10.9c-0.2,0.2-0.6,0.2-0.9-0.1l0,0c-0.3-0.3-0.3-0.7-0.1-0.9
		l10.2-10.9C-1058.4-3739.2-1058-3739.2-1057.7-3738.9L-1057.7-3738.9z"/>
</g>
<g class="st0">
	<path class="st1" d="M-1037.7-2155.3c-0.2,0.3-0.6,0.4-0.9,0.3l-4.2-3.3c-0.2-0.2-0.2-0.6,0-0.9l0,0c0.2-0.3,0.6-0.4,0.9-0.3
		l4.2,3.3C-1037.5-2156-1037.5-2155.6-1037.7-2155.3L-1037.7-2155.3z"/>
	<path class="st1" d="M-1027.7-2166.9c0.3,0.3,0.3,0.7,0.1,0.9l-10.2,10.9c-0.2,0.2-0.6,0.2-0.9-0.1l0,0c-0.3-0.3-0.3-0.7-0.1-0.9
		l10.2-10.9C-1028.4-2167.2-1028-2167.2-1027.7-2166.9L-1027.7-2166.9z"/>
</g>
<g class="st0">
	<path class="st1" d="M-3955.4-3551.3c-0.2,0.3-0.6,0.4-0.9,0.3l-4.2-3.3c-0.2-0.2-0.2-0.6,0-0.9l0,0c0.2-0.3,0.6-0.4,0.9-0.3
		l4.2,3.3C-3955.2-3552-3955.2-3551.6-3955.4-3551.3L-3955.4-3551.3z"/>
	<path class="st1" d="M-3945.4-3562.9c0.3,0.3,0.3,0.7,0.1,0.9l-10.2,10.9c-0.2,0.2-0.6,0.2-0.9-0.1l0,0c-0.3-0.3-0.3-0.7-0.1-0.9
		l10.2-10.9C-3946.1-3563.2-3945.7-3563.2-3945.4-3562.9L-3945.4-3562.9z"/>
</g>
<g class="st0">
	<path class="st1" d="M-2877.8-712.3c-0.2,0.3-0.6,0.4-0.9,0.3l-4.2-3.3c-0.2-0.2-0.2-0.6,0-0.9l0,0c0.2-0.3,0.6-0.4,0.9-0.3
		l4.2,3.3C-2877.5-713.1-2877.6-712.7-2877.8-712.3L-2877.8-712.3z"/>
	<path class="st1" d="M-2867.8-724c0.3,0.3,0.3,0.7,0.1,0.9l-10.2,10.9c-0.2,0.2-0.6,0.2-0.9-0.1l0,0c-0.3-0.3-0.3-0.7-0.1-0.9
		l10.2-10.9C-2868.5-724.3-2868.1-724.2-2867.8-724L-2867.8-724z"/>
</g>
<g class="st0">
	<path class="st1" d="M-5859.6-724.3c-0.2,0.3-0.6,0.4-0.9,0.3l-4.2-3.3c-0.2-0.2-0.2-0.6,0-0.9l0,0c0.2-0.3,0.6-0.4,0.9-0.3
		l4.2,3.3C-5859.3-725.1-5859.3-724.7-5859.6-724.3L-5859.6-724.3z"/>
	<path class="st1" d="M-5849.5-736c0.3,0.3,0.3,0.7,0.1,0.9l-10.2,10.9c-0.2,0.2-0.6,0.2-0.9-0.1l0,0c-0.3-0.3-0.3-0.7-0.1-0.9
		l10.2-10.9C-5850.2-736.3-5849.8-736.2-5849.5-736L-5849.5-736z"/>
</g>
<g class="st0">
	<path class="st1" d="M-5859.6-2104.1c-0.2,0.3-0.6,0.4-0.9,0.3l-4.2-3.3c-0.2-0.2-0.2-0.6,0-0.9l0,0c0.2-0.3,0.6-0.4,0.9-0.3
		l4.2,3.3C-5859.3-2104.8-5859.3-2104.4-5859.6-2104.1L-5859.6-2104.1z"/>
	<path class="st1" d="M-5849.5-2115.7c0.3,0.3,0.3,0.7,0.1,0.9l-10.2,10.9c-0.2,0.2-0.6,0.2-0.9-0.1l0,0c-0.3-0.3-0.3-0.7-0.1-0.9
		l10.2-10.9C-5850.2-2116-5849.8-2116-5849.5-2115.7L-5849.5-2115.7z"/>
</g>
<g class="st0">
	<path class="st1" d="M-2877.3-2107.1c-0.2,0.3-0.6,0.4-0.9,0.3l-4.2-3.3c-0.2-0.2-0.2-0.6,0-0.9l0,0c0.2-0.3,0.6-0.4,0.9-0.3
		l4.2,3.3C-2877-2107.8-2877-2107.4-2877.3-2107.1L-2877.3-2107.1z"/>
	<path class="st1" d="M-2867.2-2118.7c0.3,0.3,0.3,0.7,0.1,0.9l-10.2,10.9c-0.2,0.2-0.6,0.2-0.9-0.1l0,0c-0.3-0.3-0.3-0.7-0.1-0.9
		l10.2-10.9C-2867.9-2119-2867.5-2119-2867.2-2118.7L-2867.2-2118.7z"/>
</g>
<g class="st0">
	<path class="st1" d="M-4395.4-2105.6c-0.2,0.3-0.6,0.4-0.9,0.3l-4.2-3.3c-0.2-0.2-0.2-0.6,0-0.9l0,0c0.2-0.3,0.6-0.4,0.9-0.3
		l4.2,3.3C-4395.2-2106.3-4395.2-2105.9-4395.4-2105.6L-4395.4-2105.6z"/>
	<path class="st1" d="M-4385.4-2117.2c0.3,0.3,0.3,0.7,0.1,0.9l-10.2,10.9c-0.2,0.2-0.6,0.2-0.9-0.1l0,0c-0.3-0.3-0.3-0.7-0.1-0.9
		l10.2-10.9C-4386.1-2117.5-4385.7-2117.5-4385.4-2117.2L-4385.4-2117.2z"/>
</g>
<g class="st0">
	<path class="st1" d="M-2437.7-3727.3c-0.2,0.3-0.6,0.4-0.9,0.3l-4.2-3.3c-0.2-0.2-0.2-0.6,0-0.9l0,0c0.2-0.3,0.6-0.4,0.9-0.3
		l4.2,3.3C-2437.5-3728-2437.5-3727.6-2437.7-3727.3L-2437.7-3727.3z"/>
	<path class="st1" d="M-2427.7-3738.9c0.3,0.3,0.3,0.7,0.1,0.9l-10.2,10.9c-0.2,0.2-0.6,0.2-0.9-0.1l0,0c-0.3-0.3-0.3-0.7-0.1-0.9
		l10.2-10.9C-2428.4-3739.2-2428-3739.2-2427.7-3738.9L-2427.7-3738.9z"/>
</g>
<g class="st0">
	<path class="st1" d="M-7023.6-5147.3c-0.2,0.3-0.6,0.4-0.9,0.3l-4.2-3.3c-0.2-0.2-0.2-0.6,0-0.9l0,0c0.2-0.3,0.6-0.4,0.9-0.3
		l4.2,3.3C-7023.3-5148-7023.3-5147.6-7023.6-5147.3L-7023.6-5147.3z"/>
	<path class="st1" d="M-7013.5-5158.9c0.3,0.3,0.3,0.7,0.1,0.9l-10.2,10.9c-0.2,0.2-0.6,0.2-0.9-0.1l0,0c-0.3-0.3-0.3-0.7-0.1-0.9
		l10.2-10.9C-7014.3-5159.2-7013.8-5159.2-7013.5-5158.9L-7013.5-5158.9z"/>
</g>
<g class="st0">
	<path class="st1" d="M-5451.4-5147.3c-0.2,0.3-0.6,0.4-0.9,0.3l-4.2-3.3c-0.2-0.2-0.2-0.6,0-0.9l0,0c0.2-0.3,0.6-0.4,0.9-0.3
		l4.2,3.3C-5451.2-5148-5451.2-5147.6-5451.4-5147.3L-5451.4-5147.3z"/>
	<path class="st1" d="M-5441.4-5158.9c0.3,0.3,0.3,0.7,0.1,0.9l-10.2,10.9c-0.2,0.2-0.6,0.2-0.9-0.1l0,0c-0.3-0.3-0.3-0.7-0.1-0.9
		l10.2-10.9C-5442.1-5159.2-5441.7-5159.2-5441.4-5158.9L-5441.4-5158.9z"/>
</g>
<g class="st0">
	<path class="st1" d="M-8445.6-5147.3c-0.2,0.3-0.6,0.4-0.9,0.3l-4.2-3.3c-0.2-0.2-0.2-0.6,0-0.9l0,0c0.2-0.3,0.6-0.4,0.9-0.3
		l4.2,3.3C-8445.3-5148-8445.3-5147.6-8445.6-5147.3L-8445.6-5147.3z"/>
	<path class="st1" d="M-8435.5-5158.9c0.3,0.3,0.3,0.7,0.1,0.9l-10.2,10.9c-0.2,0.2-0.6,0.2-0.9-0.1l0,0c-0.3-0.3-0.3-0.7-0.1-0.9
		l10.2-10.9C-8436.3-5159.2-8435.8-5159.2-8435.5-5158.9L-8435.5-5158.9z"/>
</g>
<g>
	<path class="st2" d="M188.5,114.2l-7.2-7.1c16.6-16.8,38-48.5,48.2-87.1l9.8,2.6c-5.2,19.7-13.4,38.8-24.2,56.7
		C204.2,97.3,193.8,108.9,188.5,114.2z"/>
</g>
<g>
	<g>
		<path class="st3" d="M188.5,115.1c-0.2,0-0.4-0.1-0.6-0.2l-7.2-7.1c-0.2-0.2-0.2-0.4-0.3-0.6c0-0.2,0.1-0.4,0.2-0.6
			c16.5-16.7,37.8-48.3,48-86.8c0.1-0.2,0.2-0.4,0.4-0.5c0.2-0.1,0.4-0.1,0.6-0.1l9.8,2.6c0.5,0.1,0.7,0.6,0.6,1
			c-13.6,51.2-42.5,83.4-51,92C188.9,115,188.7,115.1,188.5,115.1C188.5,115.1,188.5,115.1,188.5,115.1z M182.5,107.1l6,5.9
			c9.1-9.3,36.5-40.6,49.8-89.9l-8.2-2.2C219.9,59,198.9,90.2,182.5,107.1z"/>
	</g>
</g>
<g>
	<path class="st2" d="M231.5,23l2.3,0.8c3.5,1.2,7.3-0.6,8.5-4v0c1.2-3.5-0.6-7.3-4-8.5l-2.3-0.8c-3.5-1.2-7.3,0.6-8.5,4l0,0
		C226.2,17.9,228,21.8,231.5,23z"/>
	<path class="st3" d="M236.5,25.3c-0.8,0-1.5-0.1-2.3-0.4l-3.8-1.3c-1.7-0.6-3-1.8-3.8-3.5c-0.8-1.6-0.9-3.5-0.3-5.1l0.5-1.5
		c1.2-3.5,5.1-5.3,8.6-4.1l3.8,1.3c3.5,1.2,5.3,5.1,4.1,8.6l-0.5,1.5c-0.6,1.7-1.8,3-3.5,3.8C238.4,25.1,237.5,25.3,236.5,25.3z
		 M233.3,10.7c-2.1,0-4,1.3-4.7,3.3l-0.5,1.5c-0.5,1.3-0.4,2.6,0.2,3.8c0.6,1.2,1.6,2.1,2.9,2.6l3.8,1.3c1.3,0.5,2.6,0.4,3.8-0.2
		c1.2-0.6,2.1-1.6,2.6-2.9l0.5-1.5c0.9-2.6-0.4-5.5-3-6.4l-3.8-1.3C234.4,10.8,233.8,10.7,233.3,10.7z"/>
</g>
<g>
	<path class="st2" d="M226.1,22.6l3.4,1.2c1.7,0.6,3.5-0.3,4.1-1.9v0c0.6-1.7-0.3-3.5-1.9-4.1l-3.4-1.2c-1.7-0.6-3.5,0.3-4.1,1.9
		l0,0C223.6,20.2,224.5,22,226.1,22.6z"/>
	<path class="st3" d="M230.6,24.9c-0.5,0-0.9-0.1-1.4-0.2l-3.4-1.2c-2.1-0.7-3.2-3.1-2.4-5.2c0.7-2.1,3.1-3.2,5.2-2.4L232,17
		c1,0.4,1.8,1.1,2.3,2.1c0.5,1,0.5,2.1,0.2,3.1c-0.4,1-1.1,1.8-2.1,2.3C231.8,24.7,231.2,24.9,230.6,24.9z M226.4,21.8l3.4,1.2
		c0.6,0.2,1.2,0.2,1.8-0.1c0.6-0.3,1-0.7,1.2-1.3c0.2-0.6,0.2-1.2-0.1-1.8c-0.3-0.6-0.7-1-1.3-1.2l-3.4-1.2c-1.2-0.4-2.6,0.2-3,1.4
		c-0.2,0.6-0.2,1.2,0.1,1.8C225.3,21.2,225.8,21.6,226.4,21.8L226.4,21.8z"/>
</g>
<g>
	<path class="st2" d="M63.8,150.3c-1.4,0-2.8-0.2-4.1-0.7c-8.7-3-11.5-14.3-12.8-22.6c-1.5-8.9-2.1-20.5-1.9-36.7l10.1,0.1
		c-0.1,15.6,0.4,26.7,1.8,35c2,12.3,5.2,14.3,6.1,14.6c1,0.4,6.9,1.1,22.4-19.2l8,6.1C81.4,142.8,71.9,150.3,63.8,150.3z"/>
</g>
<g>
	<path class="st4" d="M266.4,184.8H17.2c-2.9,0-5.3-2.4-5.3-5.3l0,0c0-2.9,2.4-5.3,5.3-5.3h249.2c2.9,0,5.3,2.4,5.3,5.3l0,0
		C271.7,182.4,269.3,184.8,266.4,184.8z"/>
</g>
<g>
	<g>
		<path class="st3" d="M63.8,151.2L63.8,151.2c-1.5,0-3-0.2-4.4-0.7c-9.1-3.1-12-14.8-13.4-23.2c-1.5-8.9-2.1-20.6-1.9-36.8
			c0-0.5,0.4-0.8,0.8-0.8c0,0,0,0,0,0l10.1,0.1c0.2,0,0.4,0.1,0.6,0.3c0.2,0.2,0.2,0.4,0.2,0.6c-0.1,15.5,0.4,26.6,1.8,34.8
			c2,12.4,5.2,13.9,5.6,14c0.2,0.1,1.6,0.5,5.1-1.8c4.4-2.9,9.9-8.6,16.4-17.1c0.3-0.4,0.8-0.4,1.2-0.2l8,6.1
			c0.4,0.3,0.4,0.8,0.2,1.2C81.8,143.7,72.2,151.2,63.8,151.2z M45.8,91.2c-0.1,15.7,0.5,27,1.9,35.7c1.3,8.1,4,19.1,12.3,21.9
			c1.2,0.4,2.5,0.6,3.8,0.6c7.6,0,16.9-7.3,28.4-22.3l-6.7-5.1c-6.4,8.3-11.8,13.9-16.3,16.8c-3.7,2.4-5.7,2.2-6.5,1.9
			c-4-1.4-6-11.2-6.7-15.3c-1.3-8.2-1.9-19.1-1.8-34.3L45.8,91.2z"/>
	</g>
</g>
<g>
	<polygon class="st5" points="89.2,135.5 77.5,125.7 89.2,113.9 	"/>
	<path class="st3" d="M89.2,136.4c-0.2,0-0.4-0.1-0.5-0.2l-11.8-9.8c-0.2-0.2-0.3-0.4-0.3-0.6c0-0.2,0.1-0.5,0.2-0.6l11.8-11.7
		c0.2-0.2,0.6-0.3,0.9-0.2c0.3,0.1,0.5,0.4,0.5,0.8v21.6c0,0.3-0.2,0.6-0.5,0.8C89.5,136.3,89.4,136.4,89.2,136.4z M78.7,125.6
		l9.7,8.1V116L78.7,125.6z"/>
</g>
<g>
	<polygon class="st5" points="203.7,100.6 193.9,111.4 182.6,101.6 192.8,90.7 	"/>
	<path class="st3" d="M193.9,112.3c-0.2,0-0.4-0.1-0.6-0.2l-11.2-9.9c-0.2-0.2-0.3-0.4-0.3-0.6c0-0.2,0.1-0.5,0.2-0.6l10.1-10.8
		c0.3-0.3,0.8-0.4,1.2-0.1l11,9.9c0.2,0.2,0.3,0.4,0.3,0.6c0,0.2-0.1,0.4-0.2,0.6l-9.9,10.8C194.3,112.2,194.1,112.3,193.9,112.3z
		 M183.8,101.5l10,8.7l8.7-9.6l-9.7-8.8L183.8,101.5z"/>
</g>
<g>
	<g>
		<path class="st6" d="M103.7,64.5c0,0-8.7-31.1-1.7-50c3.8,9.1,12.2,13.3,28.9,6.1c11.9-5.1,34-13,38.7,5.4
			c20.8-8.7,10.3,38.4,10.3,38.4L103.7,64.5z"/>
	</g>
	<g>
		<path class="st3" d="M103.7,65.4c-0.4,0-0.7-0.3-0.8-0.6c0-0.1-2.2-7.9-3.5-18c-1.7-13.6-1.1-24.5,1.9-32.5
			c0.1-0.3,0.4-0.5,0.8-0.5c0.4,0,0.7,0.2,0.8,0.5c1.7,4.1,4.3,6.8,7.6,8.2c4.9,2,11.7,1.1,20.2-2.6c14.7-6.4,25.2-7.8,32-4.5
			c3.7,1.8,6.2,5,7.6,9.5c3.6-1.3,6.5-1,8.7,0.8c8.8,7.3,2.1,37.6,1.8,38.9c-0.1,0.4-0.4,0.7-0.8,0.7L103.7,65.4
			C103.7,65.4,103.7,65.4,103.7,65.4z M102.2,16.8c-5.2,17,1.1,42.6,2.2,46.9l74.9-0.1c0.9-4.5,5.9-30.4-1.4-36.6
			c-1.9-1.6-4.5-1.7-7.9-0.2c-0.2,0.1-0.5,0.1-0.7,0c-0.2-0.1-0.4-0.3-0.4-0.5c-1.2-4.5-3.5-7.6-6.9-9.3c-9.4-4.6-25.4,2.3-30.6,4.5
			c-9,3.9-16.2,4.7-21.5,2.6C106.6,22.7,104,20.3,102.2,16.8z"/>
	</g>
</g>
<g>
	<circle class="st2" cx="179.9" cy="69.6" r="6.3"/>
</g>
<g>
	<path class="st3" d="M179.9,76.7c-4,0-7.2-3.2-7.2-7.2c0-4,3.2-7.2,7.2-7.2c4,0,7.2,3.2,7.2,7.2C187,73.5,183.8,76.7,179.9,76.7z
		 M179.9,64.1c-3,0-5.5,2.5-5.5,5.5c0,3,2.5,5.5,5.5,5.5c3,0,5.5-2.5,5.5-5.5C185.3,66.5,182.9,64.1,179.9,64.1z"/>
</g>
<g>
	<circle class="st2" cx="103.7" cy="69.6" r="6.3"/>
</g>
<g>
	<path class="st3" d="M103.7,76.7c-4,0-7.2-3.2-7.2-7.2c0-4,3.2-7.2,7.2-7.2c4,0,7.2,3.2,7.2,7.2C110.9,73.5,107.7,76.7,103.7,76.7z
		 M103.7,64.1c-3,0-5.5,2.5-5.5,5.5c0,3,2.5,5.5,5.5,5.5c3,0,5.5-2.5,5.5-5.5C109.2,66.5,106.8,64.1,103.7,64.1z"/>
</g>
<g>
	<path class="st2" d="M177.7,109.7h-71.9v-61c0-0.1,0-0.3,0-0.4c0.3-3.9,4.2-6.5,8-5.4c4.6,1.3,18,4.8,28,4.8s23.4-3.5,28-4.8
		c3.8-1.1,7.7,1.5,8,5.4c0,0.1,0,0.3,0,0.4V109.7z"/>
</g>
<g>
	<path class="st3" d="M178.6,110.5H105V48.6c0-0.2,0-0.3,0-0.5c0.1-2.1,1.2-3.9,2.9-5.1c1.8-1.3,4-1.6,6.1-1
		c4.9,1.4,17.4,4.8,27.7,4.8c10.3,0,22.8-3.3,27.7-4.8c2.1-0.6,4.3-0.2,6.1,1c1.7,1.2,2.8,3.1,2.9,5.1c0,0.2,0,0.3,0,0.5V110.5z
		 M106.7,108.8h70.2V48.6c0-0.1,0-0.3,0-0.4c-0.1-1.5-0.9-2.9-2.2-3.9c-1.4-1-3.1-1.2-4.7-0.8c-5,1.5-17.6,4.8-28.2,4.8
		c-10.6,0-23.2-3.4-28.2-4.8c-1.6-0.5-3.3-0.2-4.7,0.8c-1.3,0.9-2.1,2.3-2.2,3.9c0,0.1,0,0.2,0,0.4V108.8z"/>
</g>
<g>
	<g>
		<path class="st3" d="M163.7,66.7c-0.5,0-0.8-0.4-0.8-0.8c0-1.6-0.2-5.3-2.3-5.3c-2,0-2.3,3.7-2.3,5.3c0,0.5-0.4,0.8-0.8,0.8
			s-0.8-0.4-0.8-0.8c0-6.1,2.5-7,4-7c1.5,0,4,0.9,4,7C164.6,66.3,164.2,66.7,163.7,66.7z"/>
	</g>
</g>
<g>
	<path class="st7" d="M188.7,174.2H94.9c-5.5,0-10-4.5-10-10v-55.6c0-5.5,4.5-10,10-10h93.8c5.5,0,10,4.5,10,10v55.6
		C198.7,169.7,194.2,174.2,188.7,174.2z"/>
</g>
<g>
	<path class="st8" d="M194.5,98.5H89.1c-2.3,0-4.2,1.9-4.2,4.2v3.3c0-2.3,1.9-4.2,4.2-4.2h105.4c2.3,0,4.2,1.9,4.2,4.2v-3.3
		C198.7,100.4,196.8,98.5,194.5,98.5z"/>
</g>
<g>
	<path class="st3" d="M194.5,175H89.1c-2.8,0-5.1-2.3-5.1-5.1v-67.2c0-2.8,2.3-5.1,5.1-5.1h105.4c2.8,0,5.1,2.3,5.1,5.1V170
		C199.5,172.7,197.3,175,194.5,175z M89.1,99.4c-1.9,0-3.4,1.5-3.4,3.4V170c0,1.9,1.5,3.4,3.4,3.4h105.4c1.9,0,3.4-1.5,3.4-3.4
		v-67.2c0-1.9-1.5-3.4-3.4-3.4H89.1z"/>
</g>
<g>
	<path class="st3" d="M235,175H48c-0.5,0-0.8-0.4-0.8-0.8c0-0.5,0.4-0.8,0.8-0.8H235c0.5,0,0.8,0.4,0.8,0.8
		C235.8,174.6,235.4,175,235,175z"/>
</g>
<g>
	<path class="st3" d="M40.6,175H21.2c-0.5,0-0.8-0.4-0.8-0.8c0-0.5,0.4-0.8,0.8-0.8h19.4c0.5,0,0.8,0.4,0.8,0.8
		C41.5,174.6,41.1,175,40.6,175z"/>
</g>
<g>
	<path class="st3" d="M262.8,175h-19.4c-0.5,0-0.8-0.4-0.8-0.8c0-0.5,0.4-0.8,0.8-0.8h19.4c0.5,0,0.8,0.4,0.8,0.8
		C263.7,174.6,263.3,175,262.8,175z"/>
</g>
<g>
	<path class="st3" d="M126.1,66.7c-0.5,0-0.8-0.4-0.8-0.8c0-1.6-0.2-5.3-2.3-5.3c-2,0-2.3,3.7-2.3,5.3c0,0.5-0.4,0.8-0.8,0.8
		s-0.8-0.4-0.8-0.8c0-6.1,2.5-7,4-7c1.5,0,4,0.9,4,7C126.9,66.3,126.5,66.7,126.1,66.7z"/>
</g>
<g>
	<path class="st8" d="M28,98.4c-0.5,0-0.8-0.4-0.8-0.8c0-1.6-1.3-3-3-3c-0.5,0-0.8-0.4-0.8-0.8s0.4-0.8,0.8-0.8c1.6,0,3-1.3,3-3
		c0-0.5,0.4-0.8,0.8-0.8s0.8,0.4,0.8,0.8c0,1.6,1.3,3,3,3c0.5,0,0.8,0.4,0.8,0.8s-0.4,0.8-0.8,0.8c-1.6,0-3,1.3-3,3
		C28.8,98,28.5,98.4,28,98.4z M26.8,93.7c0.4,0.3,0.8,0.7,1.2,1.2c0.3-0.4,0.7-0.8,1.2-1.2c-0.4-0.3-0.8-0.7-1.2-1.2
		C27.7,93,27.3,93.4,26.8,93.7z"/>
</g>
<g>
	<path class="st8" d="M70.5,121.1c-0.5,0-0.8-0.4-0.8-0.8c0-1.6-1.3-3-3-3c-0.5,0-0.8-0.4-0.8-0.8c0-0.5,0.4-0.8,0.8-0.8
		c1.6,0,3-1.3,3-3c0-0.5,0.4-0.8,0.8-0.8s0.8,0.4,0.8,0.8c0,1.6,1.3,3,3,3c0.5,0,0.8,0.4,0.8,0.8c0,0.5-0.4,0.8-0.8,0.8
		c-1.6,0-3,1.3-3,3C71.3,120.8,71,121.1,70.5,121.1z M69.3,116.5c0.4,0.3,0.8,0.7,1.2,1.2c0.3-0.4,0.7-0.8,1.2-1.2
		c-0.4-0.3-0.8-0.7-1.2-1.2C70.2,115.8,69.8,116.1,69.3,116.5z"/>
</g>
<g>
	<path class="st8" d="M247.2,94.5c-0.5,0-0.8-0.4-0.8-0.8c0-1.6-1.3-3-3-3c-0.5,0-0.8-0.4-0.8-0.8s0.4-0.8,0.8-0.8c1.6,0,3-1.3,3-3
		c0-0.5,0.4-0.8,0.8-0.8c0.5,0,0.8,0.4,0.8,0.8c0,1.6,1.3,3,3,3c0.5,0,0.8,0.4,0.8,0.8s-0.4,0.8-0.8,0.8c-1.6,0-3,1.3-3,3
		C248.1,94.1,247.7,94.5,247.2,94.5z M246.1,89.8c0.4,0.3,0.8,0.7,1.2,1.2c0.3-0.4,0.7-0.8,1.2-1.2c-0.4-0.3-0.8-0.7-1.2-1.2
		C246.9,89.1,246.5,89.5,246.1,89.8z"/>
</g>
<g>
	<path class="st8" d="M251.1,153.3c-0.5,0-0.8-0.4-0.8-0.8c0-1.6-1.3-3-3-3c-0.5,0-0.8-0.4-0.8-0.8s0.4-0.8,0.8-0.8c1.6,0,3-1.3,3-3
		c0-0.5,0.4-0.8,0.8-0.8s0.8,0.4,0.8,0.8c0,1.6,1.3,3,3,3c0.5,0,0.8,0.4,0.8,0.8s-0.4,0.8-0.8,0.8c-1.6,0-3,1.3-3,3
		C251.9,153,251.5,153.3,251.1,153.3z M249.9,148.7c0.4,0.3,0.8,0.7,1.2,1.2c0.3-0.4,0.7-0.8,1.2-1.2c-0.4-0.3-0.8-0.7-1.2-1.2
		C250.7,147.9,250.3,148.3,249.9,148.7z"/>
</g>
<g>
	<path class="st8" d="M27.1,152.2c-2.6,0-4.7-2.1-4.7-4.7c0-2.6,2.1-4.7,4.7-4.7c2.6,0,4.7,2.1,4.7,4.7
		C31.7,150.2,29.6,152.2,27.1,152.2z M27.1,144.6c-1.6,0-3,1.3-3,3c0,1.6,1.3,3,3,3c1.6,0,3-1.3,3-3
		C30.1,145.9,28.7,144.6,27.1,144.6z"/>
</g>
<g>
	<path class="st8" d="M225.1,125.9c-2.6,0-4.7-2.1-4.7-4.7c0-2.6,2.1-4.7,4.7-4.7c2.6,0,4.7,2.1,4.7,4.7
		C229.7,123.8,227.6,125.9,225.1,125.9z M225.1,118.2c-1.6,0-3,1.3-3,3c0,1.6,1.3,3,3,3c1.6,0,3-1.3,3-3
		C228.1,119.5,226.7,118.2,225.1,118.2z"/>
</g>
<g>
	<path class="st2" d="M53.9,90.6l-2.5,0.7c-3.8,1.1-7.8-1.1-8.9-4.9l0,0c-1.1-3.8,1.1-7.8,4.9-8.9l2.5-0.7c3.8-1.1,7.8,1.1,8.9,4.9
		l0,0C59.9,85.5,57.7,89.5,53.9,90.6z"/>
	<path class="st3" d="M48.8,92.6c-1.2,0-2.4-0.3-3.5-0.9c-1.7-0.9-2.9-2.5-3.4-4.3l-0.5-1.6c-0.5-1.8-0.3-3.8,0.6-5.5
		c0.9-1.7,2.5-2.9,4.3-3.4l4.1-1.2c3.8-1.1,7.8,1.1,8.9,4.9l0.5,1.6c1.1,3.8-1.1,7.8-4.9,8.9h0l-4.1,1.2
		C50.2,92.6,49.5,92.6,48.8,92.6z M52.5,77.1c-0.5,0-1,0.1-1.5,0.2l-4.1,1.2c-1.4,0.4-2.6,1.3-3.3,2.6c-0.7,1.3-0.9,2.8-0.5,4.2
		l0.5,1.6c0.4,1.4,1.3,2.6,2.6,3.3c1.3,0.7,2.8,0.9,4.2,0.5l4.1-1.2c2.9-0.8,4.6-3.9,3.8-6.8l-0.5-1.6
		C57.1,78.7,54.9,77.1,52.5,77.1z M54.7,90.4L54.7,90.4L54.7,90.4z"/>
</g>
<g>
	<path class="st2" d="M59.7,90.6l-3.8,1.1c-1.8,0.5-3.7-0.5-4.3-2.4v0c-0.5-1.8,0.5-3.7,2.4-4.3l3.8-1.1c1.8-0.5,3.7,0.5,4.3,2.4v0
		C62.6,88.1,61.5,90,59.7,90.6z"/>
	<path class="st3" d="M55,92.6c-0.7,0-1.4-0.2-2.1-0.5c-1-0.6-1.7-1.5-2-2.6c-0.3-1.1-0.2-2.3,0.4-3.3c0.6-1,1.5-1.7,2.6-2l3.8-1.1
		c2.3-0.6,4.6,0.7,5.3,2.9c0.7,2.3-0.7,4.6-2.9,5.3l-3.8,1.1C55.8,92.6,55.4,92.6,55,92.6z M58.7,84.7c-0.2,0-0.5,0-0.7,0.1
		l-3.8,1.1c-0.7,0.2-1.2,0.6-1.6,1.2c-0.3,0.6-0.4,1.3-0.2,2c0.2,0.7,0.6,1.2,1.2,1.6c0.6,0.3,1.3,0.4,2,0.2l3.8-1.1
		c0.7-0.2,1.2-0.6,1.6-1.2c0.3-0.6,0.4-1.3,0.2-2C60.9,85.4,59.9,84.7,58.7,84.7z"/>
</g>
<g>
	<g>
		<path class="st9" d="M129,73.7c-0.1,0.8,0,1.7,0.1,2.5c0.8,6.1,6,10.9,12.2,11.1c7.3,0.3,13.3-5.6,13.3-12.8c0-0.3,0-0.6,0-0.8
			c-0.1-1.1-1-2-2.1-2h-21.4C130,71.7,129.1,72.5,129,73.7z"/>
	</g>
	<g>
		<path class="st8" d="M152.5,71.7h-21.4c-1.1,0-2,0.9-2.1,2c0,0.6,0,1.3,0,1.5h25.5c0,0,0.1-0.3,0.1-0.7c0-0.3,0-0.6,0-0.8
			C154.5,72.5,153.6,71.7,152.5,71.7z"/>
	</g>
	<g>
		<path class="st10" d="M141.8,79.5c-3.6,0-6.9,1.5-9.2,3.8c2.3,2.3,5.4,3.8,8.8,4c3.8,0.1,7.3-1.4,9.7-3.9
			C148.7,81,145.4,79.5,141.8,79.5z"/>
	</g>
	<g>
		<path class="st3" d="M141.8,88.1c-0.2,0-0.3,0-0.5,0c-6.6-0.2-12.2-5.3-13.1-11.9c-0.1-0.9-0.1-1.8-0.1-2.7v0
			c0.1-1.6,1.4-2.8,2.9-2.8h21.4c1.6,0,2.8,1.2,2.9,2.8c0,0.3,0,0.6,0,0.9c0,3.7-1.5,7.2-4.2,9.8C148.7,86.8,145.4,88.1,141.8,88.1z
			 M129.8,73.7c-0.1,0.8,0,1.6,0.1,2.3c0.8,5.7,5.7,10.2,11.4,10.4c3.3,0.1,6.4-1.1,8.7-3.4c2.4-2.3,3.7-5.3,3.7-8.6
			c0-0.3,0-0.5,0-0.8c0-0.7-0.6-1.2-1.3-1.2h-21.4C130.4,72.5,129.9,73,129.8,73.7L129.8,73.7z"/>
	</g>
</g>
<g>
	
		<ellipse transform="matrix(0.1697 -0.9855 0.9855 0.1697 -16.6497 252.9541)" class="st8" cx="141.8" cy="136.4" rx="8.2" ry="8.2"/>
</g>
</svg>
