<svg xmlns="http://www.w3.org/2000/svg" width="1122" height="297" viewBox="0 0 1121.9 296.7"><style>.a{fill:#E63D27;}.b{fill:#6D6E70;}.c{fill:#44A5AB;}</style><path d="M3 16.2c0-3.6 0.1-6.4 0.2-8.4 0.1-2 0.7-3.4 1.6-4.3 0.9-0.9 2.4-1.4 4.3-1.6 2-0.1 4.8-0.2 8.4-0.2h71c11.4 0 20.1 0.2 26.3 0.7 6.1 0.5 10.6 2 13.4 4.7 2.8 2.7 4.5 6.8 5 12.4 0.5 5.6 0.8 13.7 0.8 24.1s-0.3 18.5-0.8 24.1c-0.5 5.6-2.2 9.8-5 12.4 -2.8 2.7-7.3 4.2-13.4 4.7s-14.8 0.7-26.1 0.7l42.6 42.6c2 2 3.5 3.5 4.4 4.6 1 1.1 1.5 2.1 1.5 3.2 0 0.8-0.6 1.9-1.7 3.3 -1.1 1.4-2.5 2.9-4.1 4.4 -1.6 1.5-3.2 2.8-4.7 4 -1.5 1.1-2.6 1.7-3.2 1.7 -0.9 0-1.9-0.5-3.1-1.5 -1.1-1-2.6-2.4-4.4-4.2L58.1 85.3H24.8v51c0 2.7-0.1 4.8-0.2 6.3 -0.2 1.4-0.6 2.5-1.3 3.2 -0.7 0.7-1.7 1.1-3.2 1.3 -1.4 0.2-3.5 0.2-6.3 0.2 -2.7 0-4.8-0.1-6.3-0.2 -1.4-0.1-2.5-0.6-3.2-1.3 -0.7-0.7-1.1-1.7-1.3-3.2 -0.2-1.4-0.2-3.5-0.2-6.3V16.2zM88.6 63.5c5.9 0 10.5-0.1 13.7-0.3 3.2-0.2 5.5-1 6.9-2.3 1.4-1.3 2.3-3.3 2.6-5.9 0.3-2.7 0.5-6.5 0.5-11.5s-0.2-8.8-0.5-11.5c-0.3-2.7-1.2-4.6-2.6-5.9 -1.4-1.3-3.8-2-6.9-2.3 -3.2-0.2-7.7-0.3-13.7-0.3H24.8v40.1H88.6z" class="a"/><path d="M250.6 125.4c2.7 0 4.8 0.1 6.3 0.2 1.4 0.2 2.5 0.6 3.2 1.3 0.7 0.7 1.1 1.7 1.3 3.2 0.1 1.4 0.2 3.5 0.2 6.3s-0.1 4.8-0.2 6.3c-0.2 1.4-0.6 2.5-1.3 3.2 -0.7 0.7-1.7 1.1-3.2 1.3 -1.4 0.2-3.5 0.2-6.3 0.2h-40.1c-9.7 0-17.9-0.1-24.5-0.3 -6.6-0.2-12.1-0.9-16.4-1.9 -4.3-1.1-7.7-2.8-10-5.1 -2.4-2.4-4.1-5.7-5.1-10 -1.1-4.3-1.7-9.8-1.9-16.4 -0.2-6.6-0.3-14.8-0.3-24.5 0-9.7 0.1-17.9 0.3-24.5 0.2-6.6 0.9-12.1 1.9-16.4 1.1-4.3 2.8-7.7 5.1-10 2.4-2.4 5.7-4.1 10-5.1 4.3-1.1 9.8-1.7 16.4-1.9 6.6-0.2 14.8-0.3 24.5-0.3 9.7 0 17.9 0.1 24.5 0.3 6.6 0.2 12.1 0.9 16.4 1.9 4.3 1.1 7.7 2.7 10 5 2.4 2.3 4.1 5.4 5.1 9.4 1.1 4 1.7 9.1 1.9 15.2s0.3 13.7 0.3 22.6c0 3.6-0.1 6.5-0.2 8.4 -0.2 2-0.7 3.4-1.6 4.3 -0.9 0.9-2.4 1.4-4.3 1.6 -2 0.2-4.8 0.2-8.4 0.2h-80.1c0 6.4 0.2 11.3 0.5 14.7 0.3 3.4 1.3 5.9 2.8 7.5 1.6 1.6 4.1 2.5 7.5 2.8 3.4 0.3 8.3 0.5 14.7 0.5H250.6zM247 78.1c0-6.4-0.2-11.3-0.5-14.7 -0.3-3.4-1.3-5.9-2.8-7.5 -1.6-1.6-4.1-2.5-7.5-2.8 -3.4-0.3-8.3-0.5-14.7-0.5h-21.8c-6.4 0-11.3 0.2-14.7 0.5 -3.4 0.3-5.9 1.3-7.5 2.8 -1.6 1.6-2.5 4.1-2.8 7.5 -0.3 3.4-0.5 8.3-0.5 14.7H247z" class="a"/><path d="M361.7 125.4c3.2 0 5.6-0.1 7.3-0.2 1.7-0.1 2.9-0.6 3.8-1.5 0.8-0.8 1.3-2.1 1.5-3.8 0.2-1.7 0.2-4.1 0.2-7.3 0-3.2-0.1-5.6-0.2-7.3 -0.2-1.7-0.6-2.9-1.5-3.8 -0.8-0.8-2.1-1.3-3.8-1.5 -1.7-0.1-4.1-0.2-7.3-0.2h-40.1c-8.6 0-15.3-0.2-19.9-0.6 -4.6-0.4-8-1.7-10.2-3.9 -2.2-2.2-3.5-5.6-3.9-10.2 -0.4-4.6-0.6-11.3-0.6-19.9s0.2-15.3 0.6-19.9c0.4-4.6 1.7-8 3.9-10.2 2.2-2.2 5.6-3.5 10.2-3.9 4.6-0.4 11.3-0.6 19.9-0.6h60.1c2.7 0 4.8 0.1 6.3 0.2 1.4 0.2 2.5 0.6 3.2 1.3 0.7 0.7 1.1 1.7 1.3 3.2 0.1 1.4 0.2 3.5 0.2 6.3 0 2.7-0.1 4.8-0.2 6.3 -0.2 1.4-0.6 2.5-1.3 3.2 -0.7 0.7-1.7 1.1-3.2 1.3 -1.4 0.2-3.5 0.2-6.3 0.2h-60.1c-3.2 0-5.6 0.1-7.3 0.2 -1.7 0.2-2.9 0.6-3.8 1.5 -0.8 0.8-1.3 2.1-1.5 3.8 -0.2 1.7-0.2 4.1-0.2 7.3s0.1 5.6 0.2 7.3c0.1 1.7 0.6 2.9 1.5 3.8 0.8 0.8 2.1 1.3 3.8 1.5 1.7 0.2 4.1 0.2 7.3 0.2h40.1c8.6 0 15.3 0.2 19.9 0.6 4.6 0.4 8 1.7 10.2 3.9 2.2 2.2 3.5 5.6 3.9 10.2 0.4 4.6 0.6 11.3 0.6 19.9 0 8.6-0.2 15.3-0.6 19.9 -0.4 4.6-1.7 8-3.9 10.2 -2.2 2.2-5.6 3.5-10.2 3.9 -4.6 0.4-11.3 0.6-19.9 0.6h-63.7c-2.7 0-4.8-0.1-6.3-0.2 -1.4-0.1-2.5-0.6-3.2-1.3 -0.7-0.7-1.1-1.7-1.3-3.2 -0.2-1.4-0.2-3.5-0.2-6.3s0.1-4.8 0.2-6.3c0.2-1.4 0.6-2.5 1.3-3.2 0.7-0.7 1.7-1.1 3.2-1.3 1.4-0.1 3.5-0.2 6.3-0.2H361.7z" class="a"/><path d="M440 52.6h-21.8c-2.7 0-4.8-0.1-6.3-0.2 -1.4-0.1-2.5-0.6-3.2-1.3 -0.7-0.7-1.1-1.7-1.3-3.2 -0.2-1.4-0.2-3.5-0.2-6.3 0-2.7 0.1-4.8 0.2-6.3 0.1-1.4 0.6-2.5 1.3-3.2 0.7-0.7 1.7-1.1 3.2-1.3 1.4-0.1 3.5-0.2 6.3-0.2h21.9V12.5c0-2.7 0.1-4.8 0.2-6.3 0.2-1.4 0.6-2.5 1.3-3.2s1.7-1.1 3.2-1.3c1.4-0.1 3.5-0.2 6.3-0.2 2.7 0 4.8 0.1 6.3 0.2 1.4 0.2 2.5 0.6 3.2 1.3 0.7 0.7 1.1 1.7 1.3 3.2 0.1 1.4 0.2 3.5 0.2 6.3v18.2h21.9c2.7 0 4.8 0.1 6.3 0.2 1.4 0.2 2.5 0.6 3.2 1.3 0.7 0.7 1.1 1.7 1.3 3.2 0.2 1.4 0.2 3.5 0.2 6.3 0 2.7-0.1 4.8-0.2 6.3 -0.2 1.4-0.6 2.5-1.3 3.2 -0.7 0.7-1.7 1.1-3.2 1.3 -1.4 0.2-3.5 0.2-6.3 0.2h-21.8v83.8c0 2.7-0.1 4.8-0.2 6.3 -0.2 1.4-0.6 2.5-1.3 3.2 -0.7 0.7-1.7 1.1-3.2 1.3 -1.4 0.2-3.5 0.2-6.3 0.2 -2.7 0-4.8-0.1-6.3-0.2 -1.4-0.1-2.5-0.6-3.2-1.3 -0.7-0.7-1.1-1.7-1.3-3.2 -0.2-1.4-0.2-3.5-0.2-6.3V52.6z" class="a"/><path d="M600.2 125.4c2.7 0 4.8 0.1 6.3 0.2 1.4 0.2 2.5 0.6 3.2 1.3 0.7 0.7 1.1 1.7 1.3 3.2 0.1 1.4 0.2 3.5 0.2 6.3s-0.1 4.8-0.2 6.3c-0.2 1.4-0.6 2.5-1.3 3.2 -0.7 0.7-1.7 1.1-3.2 1.3 -1.4 0.2-3.5 0.2-6.3 0.2h-32.8c-9.7 0-17.9-0.1-24.5-0.3 -6.6-0.2-12.1-0.9-16.4-1.9 -4.3-1.1-7.7-2.8-10-5.1 -2.4-2.4-4.1-5.7-5.1-10 -1.1-4.3-1.7-9.8-1.9-16.4 -0.2-6.6-0.3-14.8-0.3-24.5 0-9.7 0.1-17.9 0.3-24.5 0.2-6.6 0.9-12.1 1.9-16.4 1.1-4.3 2.8-7.7 5.1-10 2.4-2.4 5.7-4.1 10-5.1 4.3-1.1 9.8-1.7 16.4-1.9 6.6-0.2 14.8-0.3 24.5-0.3h32.8c2.7 0 4.8 0.1 6.3 0.2 1.4 0.2 2.5 0.6 3.2 1.3 0.7 0.7 1.1 1.7 1.3 3.2 0.1 1.4 0.2 3.5 0.2 6.3 0 2.7-0.1 4.8-0.2 6.3 -0.2 1.4-0.6 2.5-1.3 3.2 -0.7 0.7-1.7 1.1-3.2 1.3 -1.4 0.2-3.5 0.2-6.3 0.2h-32.8c-9.1 0-16.1 0.2-21.1 0.6 -4.9 0.4-8.5 1.7-10.8 4 -2.3 2.3-3.6 5.9-4 10.8 -0.4 4.9-0.6 11.9-0.6 21.1 0 9.1 0.2 16.1 0.6 21.1 0.4 4.9 1.7 8.5 4 10.8 2.3 2.3 5.9 3.6 10.8 4 4.9 0.4 11.9 0.6 21.1 0.6H600.2z" class="a"/><path d="M687.6 30.7c9.7 0 17.9 0.1 24.5 0.3 6.6 0.2 12.1 0.9 16.4 1.9 4.3 1.1 7.7 2.8 10 5.1 2.4 2.4 4.1 5.7 5.1 10 1.1 4.3 1.7 9.8 1.9 16.4 0.2 6.6 0.3 14.8 0.3 24.5 0 9.7-0.1 17.9-0.3 24.5 -0.2 6.6-0.9 12.1-1.9 16.4 -1.1 4.3-2.8 7.7-5.1 10 -2.4 2.4-5.7 4.1-10 5.1 -4.3 1.1-9.8 1.7-16.4 1.9 -6.6 0.2-14.8 0.3-24.5 0.3 -9.7 0-17.9-0.1-24.5-0.3s-12.1-0.9-16.4-1.9c-4.3-1.1-7.7-2.8-10-5.1 -2.4-2.4-4.1-5.7-5.1-10 -1.1-4.3-1.7-9.8-1.9-16.4s-0.3-14.8-0.3-24.5c0-9.7 0.1-17.9 0.3-24.5s0.9-12.1 1.9-16.4c1.1-4.3 2.8-7.7 5.1-10 2.4-2.4 5.7-4.1 10-5.1 4.3-1.1 9.8-1.7 16.4-1.9C669.7 30.8 677.9 30.7 687.6 30.7zM724 89c0-9.1-0.2-16.1-0.6-21.1 -0.4-4.9-1.7-8.5-4-10.8 -2.3-2.3-5.9-3.6-10.8-4 -4.9-0.4-11.9-0.6-21.1-0.6 -9.1 0-16.1 0.2-21.1 0.6 -4.9 0.4-8.5 1.7-10.8 4 -2.3 2.3-3.6 5.9-4 10.8 -0.4 4.9-0.6 11.9-0.6 21.1 0 9.1 0.2 16.1 0.6 21.1 0.4 4.9 1.7 8.5 4 10.8 2.3 2.3 5.9 3.6 10.8 4 4.9 0.4 11.9 0.6 21.1 0.6 9.1 0 16.1-0.2 21.1-0.6 4.9-0.4 8.5-1.7 10.8-4 2.3-2.3 3.6-5.9 4-10.8C723.8 105.1 724 98.1 724 89z" class="a"/><path d="M765 45.3c0-3.6 0.1-6.4 0.2-8.4 0.2-2 0.7-3.4 1.6-4.3 0.9-0.9 2.4-1.4 4.3-1.6 2-0.1 4.8-0.2 8.4-0.2h102c8.5 0 15.6 0.1 21.4 0.2 5.8 0.2 10.5 0.7 14.3 1.7 3.8 1 6.7 2.5 8.8 4.6 2 2 3.6 5 4.6 8.8 1 3.8 1.6 8.6 1.7 14.5 0.1 5.8 0.2 12.9 0.2 21.3v54.6c0 2.7-0.1 4.8-0.2 6.3 -0.2 1.4-0.6 2.5-1.3 3.2 -0.7 0.7-1.7 1.1-3.2 1.3 -1.4 0.2-3.5 0.2-6.3 0.2 -2.7 0-4.8-0.1-6.3-0.2 -1.4-0.1-2.5-0.6-3.2-1.3 -0.7-0.7-1.1-1.7-1.3-3.2 -0.2-1.4-0.2-3.5-0.2-6.3V81.7c0-7.3-0.2-12.9-0.5-16.8 -0.3-3.9-1.4-6.8-3.2-8.6 -1.8-1.8-4.7-2.9-8.6-3.2 -3.9-0.3-9.6-0.5-16.8-0.5h-21.8v83.8c0 2.7-0.1 4.8-0.2 6.3 -0.2 1.4-0.6 2.5-1.3 3.2 -0.7 0.7-1.7 1.1-3.2 1.3 -1.4 0.2-3.5 0.2-6.3 0.2 -2.7 0-4.8-0.1-6.3-0.2 -1.4-0.1-2.5-0.6-3.2-1.3 -0.7-0.7-1.1-1.7-1.3-3.2 -0.2-1.4-0.2-3.5-0.2-6.3V52.6h-51v83.8c0 2.7-0.1 4.8-0.2 6.3 -0.2 1.4-0.6 2.5-1.3 3.2 -0.7 0.7-1.7 1.1-3.2 1.3 -1.4 0.2-3.5 0.2-6.3 0.2 -2.7 0-4.8-0.1-6.3-0.2 -1.4-0.1-2.5-0.6-3.2-1.3 -0.7-0.7-1.1-1.7-1.3-3.2 -0.2-1.4-0.2-3.5-0.2-6.3V45.3z" class="a"/><path d="M951.6 45.3c0-3.6 0.1-6.4 0.2-8.4 0.2-2 0.7-3.4 1.6-4.3 0.9-0.9 2.4-1.4 4.3-1.6 2-0.1 4.8-0.2 8.4-0.2h102c8.5 0 15.6 0.1 21.4 0.2 5.8 0.2 10.5 0.7 14.3 1.7 3.8 1 6.7 2.5 8.8 4.6 2 2 3.6 5 4.6 8.8 1 3.8 1.6 8.6 1.7 14.5 0.1 5.8 0.2 12.9 0.2 21.3v54.6c0 2.7-0.1 4.8-0.2 6.3 -0.2 1.4-0.6 2.5-1.3 3.2 -0.7 0.7-1.7 1.1-3.2 1.3 -1.4 0.2-3.5 0.2-6.3 0.2s-4.8-0.1-6.3-0.2c-1.4-0.1-2.5-0.6-3.2-1.3 -0.7-0.7-1.1-1.7-1.3-3.2 -0.2-1.4-0.2-3.5-0.2-6.3V81.7c0-7.3-0.2-12.9-0.5-16.8 -0.3-3.9-1.4-6.8-3.2-8.6 -1.8-1.8-4.7-2.9-8.6-3.2 -3.9-0.3-9.6-0.5-16.8-0.5h-21.8v83.8c0 2.7-0.1 4.8-0.2 6.3 -0.2 1.4-0.6 2.5-1.3 3.2 -0.7 0.7-1.7 1.1-3.2 1.3 -1.4 0.2-3.5 0.2-6.3 0.2 -2.7 0-4.8-0.1-6.3-0.2 -1.4-0.1-2.5-0.6-3.2-1.3 -0.7-0.7-1.1-1.7-1.3-3.2 -0.2-1.4-0.2-3.5-0.2-6.3V52.6h-51v83.8c0 2.7-0.1 4.8-0.2 6.3 -0.2 1.4-0.6 2.5-1.3 3.2 -0.7 0.7-1.7 1.1-3.2 1.3 -1.4 0.2-3.5 0.2-6.3 0.2 -2.7 0-4.8-0.1-6.3-0.2 -1.4-0.1-2.5-0.6-3.2-1.3 -0.7-0.7-1.1-1.7-1.3-3.2 -0.2-1.4-0.2-3.5-0.2-6.3V45.3z" class="a"/><path d="M476.2 201.3l-20.2 65.1h-10.9l-14.2-44.5c-0.4-1.1-0.7-2.4-1.1-4 -0.2 0.8-0.4 1.5-0.5 2.1 -0.2 0.7-0.4 1.3-0.6 1.8l-14.4 44.5h-11l-20.2-65.1h10.1c1.1 0 1.9 0.2 2.6 0.7 0.7 0.5 1.2 1.2 1.4 2l11.1 38.9c0.2 1 0.5 2 0.7 3.1s0.5 2.3 0.7 3.5c0.2-1.3 0.5-2.4 0.8-3.6 0.3-1.1 0.6-2.1 0.9-3.1l12.8-38.9c0.2-0.7 0.7-1.3 1.4-1.9 0.7-0.6 1.6-0.9 2.6-0.9h3.6c1.1 0 1.9 0.3 2.6 0.8 0.7 0.5 1.2 1.2 1.5 2l12.7 38.9c0.6 1.9 1.2 4 1.7 6.4 0.4-2.4 0.8-4.5 1.3-6.4l11.1-38.9c0.2-0.7 0.6-1.4 1.4-1.9 0.7-0.5 1.6-0.8 2.6-0.8H476.2z" class="b"/><path d="M485.6 244.6c0.2 2.4 0.6 4.4 1.3 6.1 0.7 1.7 1.5 3.2 2.6 4.3s2.4 2 3.8 2.5c1.5 0.6 3.1 0.8 4.9 0.8 1.8 0 3.4-0.2 4.7-0.6 1.3-0.4 2.4-0.9 3.4-1.4 1-0.5 1.8-1 2.6-1.4 0.7-0.4 1.4-0.6 2.1-0.6 0.9 0 1.6 0.3 2.1 1l3.2 4.1c-1.2 1.4-2.6 2.6-4.1 3.6 -1.5 1-3.1 1.8-4.8 2.3s-3.4 1-5.1 1.2c-1.7 0.2-3.4 0.4-5 0.4 -3.2 0-6.2-0.5-9-1.6 -2.8-1.1-5.2-2.6-7.2-4.7 -2-2.1-3.6-4.7-4.8-7.7 -1.2-3.1-1.8-6.6-1.8-10.7 0-3.1 0.5-6.1 1.5-8.9 1-2.8 2.5-5.2 4.4-7.2 1.9-2.1 4.2-3.7 7-4.9 2.7-1.2 5.8-1.8 9.3-1.8 2.9 0 5.6 0.5 8.1 1.4 2.5 0.9 4.6 2.3 6.3 4.1 1.8 1.8 3.2 4 4.2 6.6 1 2.6 1.5 5.6 1.5 8.9 0 1.7-0.2 2.8-0.5 3.4s-1 0.9-2.1 0.9H485.6zM506.8 237.9c0-1.4-0.2-2.8-0.6-4.1 -0.4-1.3-1-2.4-1.8-3.4 -0.8-1-1.8-1.7-3.1-2.3 -1.2-0.6-2.7-0.8-4.3-0.8 -3.2 0-5.7 0.9-7.6 2.7 -1.8 1.8-3 4.4-3.5 7.8H506.8z" class="b"/><path d="M536.2 225.8c1.9-1.9 3.9-3.5 6.2-4.7 2.3-1.2 4.9-1.7 7.8-1.7 2.7 0 5.1 0.5 7.2 1.6 2.1 1.1 4 2.6 5.5 4.5 1.5 2 2.7 4.3 3.5 7.1s1.2 5.9 1.2 9.4c0 3.8-0.5 7.2-1.4 10.2 -0.9 3.1-2.3 5.7-4 7.9 -1.7 2.2-3.8 3.9-6.2 5.1 -2.4 1.2-5.1 1.8-8.1 1.8 -1.4 0-2.7-0.1-3.9-0.4 -1.2-0.3-2.2-0.7-3.2-1.2 -1-0.5-1.9-1.1-2.7-1.9 -0.8-0.7-1.6-1.6-2.4-2.5l-0.5 3.1c-0.2 0.8-0.5 1.3-0.9 1.7 -0.4 0.3-1 0.5-1.8 0.5h-7.3v-66.9h11.1V225.8zM536.2 254.4c1.3 1.5 2.6 2.6 4.1 3.2 1.5 0.6 3.1 0.9 4.7 0.9 1.7 0 3.2-0.3 4.6-0.9 1.4-0.6 2.5-1.6 3.5-2.9 1-1.3 1.7-3 2.2-5 0.5-2 0.8-4.4 0.8-7.3 0-5.1-0.8-8.7-2.5-11 -1.7-2.3-4.1-3.4-7.2-3.4 -2.1 0-4 0.5-5.6 1.5 -1.6 1-3.1 2.3-4.5 4.1V254.4z" class="b"/><path d="M627.4 266.3H616.5c-2.1 0-3.6-0.8-4.5-2.4l-13.7-20.8c-0.5-0.8-1.1-1.3-1.7-1.7 -0.6-0.3-1.5-0.5-2.7-0.5h-5.2v25.4H576.6v-65.1h19.8c4.4 0 8.2 0.5 11.4 1.4 3.2 0.9 5.8 2.2 7.8 3.8 2 1.6 3.5 3.6 4.5 5.9 1 2.3 1.4 4.8 1.4 7.6 0 2.2-0.3 4.3-1 6.2 -0.6 2-1.6 3.7-2.8 5.3 -1.2 1.6-2.7 3-4.5 4.2 -1.8 1.2-3.8 2.1-6.1 2.8 0.8 0.4 1.5 1 2.2 1.6 0.7 0.6 1.3 1.3 1.8 2.2L627.4 266.3zM596.3 232.2c2.3 0 4.3-0.3 6-0.9 1.7-0.6 3.1-1.4 4.2-2.4 1.1-1 1.9-2.2 2.5-3.6 0.5-1.4 0.8-2.9 0.8-4.5 0-3.3-1.1-5.8-3.3-7.6 -2.2-1.8-5.5-2.7-10-2.7h-7.7v21.6H596.3z" class="b"/><path d="M678.2 211.2h-19.6v55.1h-12.1v-55.1h-19.6v-9.9H678.2V211.2z" class="b"/><path d="M729.3 251c0.7 0 1.2 0.3 1.8 0.8l4.8 5.2c-2.6 3.3-5.9 5.8-9.7 7.5 -3.9 1.7-8.5 2.6-13.9 2.6 -4.8 0-9.2-0.8-13-2.5 -3.9-1.6-7.1-3.9-9.9-6.9 -2.7-2.9-4.8-6.4-6.3-10.5s-2.2-8.5-2.2-13.4c0-4.9 0.8-9.4 2.3-13.4 1.6-4.1 3.8-7.6 6.6-10.5s6.2-5.2 10.1-6.9c3.9-1.6 8.3-2.5 13.1-2.5 4.7 0 8.9 0.8 12.6 2.3 3.7 1.6 6.8 3.6 9.4 6.1l-4 5.6c-0.2 0.4-0.5 0.7-0.9 0.9 -0.4 0.3-0.9 0.4-1.6 0.4 -0.4 0-0.9-0.1-1.4-0.4s-1-0.6-1.6-0.9c-0.6-0.4-1.2-0.8-2-1.2s-1.6-0.9-2.6-1.2c-1-0.4-2.1-0.7-3.4-0.9 -1.3-0.3-2.8-0.4-4.5-0.4 -2.9 0-5.6 0.5-8 1.6 -2.4 1-4.5 2.5-6.2 4.5 -1.7 2-3.1 4.4-4 7.2 -1 2.8-1.4 6.1-1.4 9.7 0 3.7 0.5 6.9 1.6 9.8 1 2.9 2.4 5.3 4.2 7.2 1.8 2 3.9 3.4 6.3 4.5 2.4 1 5 1.6 7.7 1.6 1.6 0 3.1-0.1 4.5-0.3 1.3-0.2 2.6-0.5 3.7-0.9 1.1-0.4 2.2-0.9 3.2-1.5 1-0.6 2-1.4 3-2.3 0.3-0.3 0.6-0.5 0.9-0.7C728.6 251.1 728.9 251 729.3 251z" class="b"/><path d="M907.6 231.5c0 4.7-0.8 9.1-2.5 13.1 -1.6 4-3.9 7.5-6.9 10.4 -3 2.9-6.5 5.2-10.7 6.8 -4.2 1.6-8.8 2.5-13.9 2.5h-25.5v-65.6h25.5c5.1 0 9.7 0.8 13.9 2.5 4.2 1.7 7.8 3.9 10.7 6.8 3 2.9 5.3 6.4 6.9 10.4C906.8 222.5 907.6 226.8 907.6 231.5zM892 231.5c0-3.2-0.4-6.2-1.3-8.8s-2-4.8-3.6-6.6c-1.6-1.8-3.5-3.2-5.8-4.2s-4.9-1.5-7.8-1.5h-10.2v42.2h10.2c2.9 0 5.5-0.5 7.8-1.5s4.2-2.4 5.8-4.2c1.6-1.8 2.8-4 3.6-6.6C891.6 237.7 892 234.8 892 231.5z" class="c"/><path d="M931.9 210.5v15.3h20.6v11.3H931.9v15.6h26.9v11.7H916.6v-65.6h42.2v11.7H931.9z" class="c"/><path d="M1041.9 198.8v65.6h-13.4v-37.7c0-0.9 0-1.8 0.1-2.8 0-1 0.1-2.1 0.2-3.1l-17.4 33.7c-0.5 1.1-1.3 1.8-2.2 2.4s-2 0.8-3.1 0.8h-2.1c-1.2 0-2.2-0.3-3.1-0.8s-1.6-1.3-2.2-2.4l-17.4-33.8c0.1 1.1 0.2 2.1 0.2 3.2 0.1 1 0.1 2 0.1 2.9v37.7h-13.4v-65.6h11.6c0.7 0 1.2 0 1.7 0 0.5 0 0.9 0.1 1.3 0.3 0.4 0.2 0.7 0.4 1.1 0.7 0.3 0.3 0.6 0.8 0.9 1.3l16.9 33.3c0.6 1.1 1.2 2.3 1.7 3.6 0.6 1.2 1.1 2.5 1.6 3.8 0.5-1.3 1-2.6 1.6-3.9 0.6-1.3 1.1-2.5 1.8-3.6l16.8-33.1c0.3-0.6 0.6-1 0.9-1.3 0.3-0.3 0.7-0.5 1.1-0.7 0.4-0.1 0.8-0.2 1.3-0.3 0.5 0 1.1 0 1.7 0H1041.9z" class="c"/><path d="M1118.9 231.5c0 4.7-0.8 9.2-2.5 13.2 -1.6 4.1-3.9 7.6-6.9 10.6s-6.5 5.4-10.7 7.1 -8.8 2.6-13.9 2.6c-5.1 0-9.7-0.9-13.9-2.6s-7.8-4.1-10.8-7.1 -5.3-6.6-6.9-10.6c-1.6-4.1-2.5-8.5-2.5-13.2s0.8-9.1 2.5-13.2c1.6-4.1 3.9-7.6 6.9-10.6 3-3 6.6-5.4 10.8-7.1s8.9-2.6 14-2.6c5.1 0 9.7 0.9 13.9 2.6 4.2 1.7 7.8 4.1 10.7 7.1 3 3 5.3 6.5 6.9 10.6C1118.1 222.4 1118.9 226.8 1118.9 231.5zM1103.4 231.5c0-3.2-0.4-6.2-1.3-8.8 -0.8-2.6-2-4.8-3.6-6.6 -1.6-1.8-3.5-3.2-5.8-4.1 -2.3-1-4.9-1.4-7.8-1.4 -2.9 0-5.6 0.5-7.9 1.4 -2.3 1-4.2 2.3-5.8 4.1 -1.6 1.8-2.8 4-3.6 6.6 -0.8 2.6-1.3 5.5-1.3 8.8 0 3.3 0.4 6.2 1.3 8.8 0.8 2.6 2 4.8 3.6 6.6s3.5 3.2 5.8 4.1c2.3 0.9 4.9 1.4 7.9 1.4 2.9 0 5.5-0.5 7.8-1.4 2.3-0.9 4.2-2.3 5.8-4.1 1.6-1.8 2.8-4 3.6-6.6C1102.9 237.7 1103.4 234.8 1103.4 231.5z" class="c"/><rect x="789.3" y="180.3" width="4" height="114" class="b"/></svg>