<?xml version="1.0" encoding="utf-8"?>
<!-- Generator: Adobe Illustrator 22.0.0, SVG Export Plug-In . SVG Version: 6.00 Build 0)  -->
<svg version="1.1" id="Layer_1" xmlns="http://www.w3.org/2000/svg" xmlns:xlink="http://www.w3.org/1999/xlink" x="0px" y="0px"
	 viewBox="0 0 306.7 199.3" style="enable-background:new 0 0 306.7 199.3;" xml:space="preserve">
<style type="text/css">
	.st0{display:none;}
	.st1{display:inline;fill:#101B32;}
	.st2{fill:#F9E6CD;stroke:#12497E;stroke-width:1.5;stroke-miterlimit:10;}
	.st3{fill:#50B1E4;stroke:#12497E;stroke-width:1.5;stroke-miterlimit:10;}
	.st4{fill:none;stroke:#242D4D;stroke-width:1.5;stroke-miterlimit:10;}
	.st5{fill:#C4E5F9;}
	.st6{fill:#948876;}
	.st7{fill:#13487E;}
	.st8{fill:#F9E6CD;}
	.st9{fill:#E6E6E5;}
	.st10{fill:#FFFFFF;}
	.st11{font-family:'ComicSansMS-Bold';}
	.st12{font-size:13px;}
</style>
<g class="st0">
	<path class="st1" d="M1076.2-4102.3c-0.2,0.3-0.6,0.4-0.9,0.3l-4.2-3.3c-0.2-0.2-0.2-0.6,0-0.9l0,0c0.2-0.3,0.6-0.4,0.9-0.3
		l4.2,3.3C1076.4-4103,1076.4-4102.6,1076.2-4102.3L1076.2-4102.3z"/>
	<path class="st1" d="M1086.2-4113.9c0.3,0.3,0.3,0.7,0.1,0.9l-10.2,10.9c-0.2,0.2-0.6,0.2-0.9-0.1l0,0c-0.3-0.3-0.3-0.7-0.1-0.9
		l10.2-10.9C1085.5-4114.2,1085.9-4114.2,1086.2-4113.9L1086.2-4113.9z"/>
</g>
<g class="st0">
	<path class="st1" d="M-3522.7-4066.3c-0.2,0.3-0.6,0.4-0.9,0.3l-4.2-3.3c-0.2-0.2-0.2-0.6,0-0.9l0,0c0.2-0.3,0.6-0.4,0.9-0.3
		l4.2,3.3C-3522.4-4067-3522.5-4066.6-3522.7-4066.3L-3522.7-4066.3z"/>
	<path class="st1" d="M-3512.7-4077.9c0.3,0.3,0.3,0.7,0.1,0.9l-10.2,10.9c-0.2,0.2-0.6,0.2-0.9-0.1l0,0c-0.3-0.3-0.3-0.7-0.1-0.9
		l10.2-10.9C-3513.4-4078.2-3513-4078.2-3512.7-4077.9L-3512.7-4077.9z"/>
</g>
<g class="st0">
	<path class="st1" d="M-1953.7-2542.3c-0.2,0.3-0.6,0.4-0.9,0.3l-4.2-3.3c-0.2-0.2-0.2-0.6,0-0.9l0,0c0.2-0.3,0.6-0.4,0.9-0.3
		l4.2,3.3C-1953.4-2543-1953.4-2542.6-1953.7-2542.3L-1953.7-2542.3z"/>
	<path class="st1" d="M-1943.7-2553.9c0.3,0.3,0.3,0.7,0.1,0.9l-10.2,10.9c-0.2,0.2-0.6,0.2-0.9-0.1l0,0c-0.3-0.3-0.3-0.7-0.1-0.9
		l10.2-10.9C-1944.4-2554.2-1944-2554.2-1943.7-2553.9L-1943.7-2553.9z"/>
</g>
<g class="st0">
	<path class="st1" d="M-1977.7-2708.3c-0.2,0.3-0.6,0.4-0.9,0.3l-4.2-3.3c-0.2-0.2-0.2-0.6,0-0.9l0,0c0.2-0.3,0.6-0.4,0.9-0.3
		l4.2,3.3C-1977.4-2709-1977.4-2708.6-1977.7-2708.3L-1977.7-2708.3z"/>
	<path class="st1" d="M-1967.7-2719.9c0.3,0.3,0.3,0.7,0.1,0.9l-10.2,10.9c-0.2,0.2-0.6,0.2-0.9-0.1l0,0c-0.3-0.3-0.3-0.7-0.1-0.9
		l10.2-10.9C-1968.4-2720.2-1968-2720.2-1967.7-2719.9L-1967.7-2719.9z"/>
</g>
<g class="st0">
	<path class="st1" d="M-1977.7-4066.3c-0.2,0.3-0.6,0.4-0.9,0.3l-4.2-3.3c-0.2-0.2-0.2-0.6,0-0.9l0,0c0.2-0.3,0.6-0.4,0.9-0.3
		l4.2,3.3C-1977.4-4067-1977.4-4066.6-1977.7-4066.3L-1977.7-4066.3z"/>
	<path class="st1" d="M-1967.7-4077.9c0.3,0.3,0.3,0.7,0.1,0.9l-10.2,10.9c-0.2,0.2-0.6,0.2-0.9-0.1l0,0c-0.3-0.3-0.3-0.7-0.1-0.9
		l10.2-10.9C-1968.4-4078.2-1968-4078.2-1967.7-4077.9L-1967.7-4077.9z"/>
</g>
<g class="st0">
	<path class="st1" d="M1236.5-4066.3c-0.2,0.3-0.6,0.4-0.9,0.3l-4.2-3.3c-0.2-0.2-0.2-0.6,0-0.9l0,0c0.2-0.3,0.6-0.4,0.9-0.3
		l4.2,3.3C1236.7-4067,1236.7-4066.6,1236.5-4066.3L1236.5-4066.3z"/>
	<path class="st1" d="M1246.5-4077.9c0.3,0.3,0.3,0.7,0.1,0.9l-10.2,10.9c-0.2,0.2-0.6,0.2-0.9-0.1l0,0c-0.3-0.3-0.3-0.7-0.1-0.9
		l10.2-10.9C1245.8-4078.2,1246.2-4078.2,1246.5-4077.9L1246.5-4077.9z"/>
</g>
<g class="st0">
	<path class="st1" d="M-921.7,356.6c-0.2,0.3-0.6,0.4-0.9,0.3l-4.2-3.3c-0.2-0.2-0.2-0.6,0-0.9l0,0c0.2-0.3,0.6-0.4,0.9-0.3l4.2,3.3
		C-921.4,355.9-921.4,356.3-921.7,356.6L-921.7,356.6z"/>
	<path class="st1" d="M-911.7,345c0.3,0.3,0.3,0.7,0.1,0.9l-10.2,10.9c-0.2,0.2-0.6,0.2-0.9-0.1l0,0c-0.3-0.3-0.3-0.7-0.1-0.9
		l10.2-10.9C-912.4,344.7-912,344.7-911.7,345L-911.7,345z"/>
</g>
<g class="st0">
	<path class="st1" d="M-481.7-4066.3c-0.2,0.3-0.6,0.4-0.9,0.3l-4.2-3.3c-0.2-0.2-0.2-0.6,0-0.9l0,0c0.2-0.3,0.6-0.4,0.9-0.3
		l4.2,3.3C-481.4-4067-481.4-4066.6-481.7-4066.3L-481.7-4066.3z"/>
	<path class="st1" d="M-471.7-4077.9c0.3,0.3,0.3,0.7,0.1,0.9l-10.2,10.9c-0.2,0.2-0.6,0.2-0.9-0.1l0,0c-0.3-0.3-0.3-0.7-0.1-0.9
		l10.2-10.9C-472.4-4078.2-472-4078.2-471.7-4077.9L-471.7-4077.9z"/>
</g>
<g class="st0">
	<path class="st1" d="M1036-1268.8c-0.2,0.3-0.6,0.4-0.9,0.3l-4.2-3.3c-0.2-0.2-0.2-0.6,0-0.9l0,0c0.2-0.3,0.6-0.4,0.9-0.3l4.2,3.3
		C1036.3-1269.5,1036.3-1269.1,1036-1268.8L1036-1268.8z"/>
	<path class="st1" d="M1046-1280.4c0.3,0.3,0.3,0.7,0.1,0.9l-10.2,10.9c-0.2,0.2-0.6,0.2-0.9-0.1l0,0c-0.3-0.3-0.3-0.7-0.1-0.9
		l10.2-10.9C1045.3-1280.7,1045.7-1280.7,1046-1280.4L1046-1280.4z"/>
</g>
<g class="st0">
	<path class="st1" d="M2487.7-4066.3c-0.2,0.3-0.6,0.4-0.9,0.3l-4.2-3.3c-0.2-0.2-0.2-0.6,0-0.9l0,0c0.2-0.3,0.6-0.4,0.9-0.3
		l4.2,3.3C2488-4067,2488-4066.6,2487.7-4066.3L2487.7-4066.3z"/>
	<path class="st1" d="M2497.7-4077.9c0.3,0.3,0.3,0.7,0.1,0.9l-10.2,10.9c-0.2,0.2-0.6,0.2-0.9-0.1l0,0c-0.3-0.3-0.3-0.7-0.1-0.9
		l10.2-10.9C2497-4078.2,2497.5-4078.2,2497.7-4077.9L2497.7-4077.9z"/>
</g>
<g class="st0">
	<path class="st1" d="M2648-4030.3c-0.2,0.3-0.6,0.4-0.9,0.3l-4.2-3.3c-0.2-0.2-0.2-0.6,0-0.9l0,0c0.2-0.3,0.6-0.4,0.9-0.3l4.2,3.3
		C2648.3-4031,2648.3-4030.6,2648-4030.3L2648-4030.3z"/>
	<path class="st1" d="M2658-4041.9c0.3,0.3,0.3,0.7,0.1,0.9l-10.2,10.9c-0.2,0.2-0.6,0.2-0.9-0.1l0,0c-0.3-0.3-0.3-0.7-0.1-0.9
		l10.2-10.9C2657.3-4042.2,2657.7-4042.2,2658-4041.9L2658-4041.9z"/>
</g>
<g class="st0">
	<path class="st1" d="M2406-2646.3c-0.2,0.3-0.6,0.4-0.9,0.3l-4.2-3.3c-0.2-0.2-0.2-0.6,0-0.9l0,0c0.2-0.3,0.6-0.4,0.9-0.3l4.2,3.3
		C2406.3-2647,2406.3-2646.6,2406-2646.3L2406-2646.3z"/>
	<path class="st1" d="M2416-2657.9c0.3,0.3,0.3,0.7,0.1,0.9l-10.2,10.9c-0.2,0.2-0.6,0.2-0.9-0.1l0,0c-0.3-0.3-0.3-0.7-0.1-0.9
		l10.2-10.9C2415.3-2658.2,2415.7-2658.2,2416-2657.9L2416-2657.9z"/>
</g>
<g class="st0">
	<path class="st1" d="M2436-1074.3c-0.2,0.3-0.6,0.4-0.9,0.3l-4.2-3.3c-0.2-0.2-0.2-0.6,0-0.9l0,0c0.2-0.3,0.6-0.4,0.9-0.3l4.2,3.3
		C2436.3-1075,2436.3-1074.6,2436-1074.3L2436-1074.3z"/>
	<path class="st1" d="M2446-1085.9c0.3,0.3,0.3,0.7,0.1,0.9l-10.2,10.9c-0.2,0.2-0.6,0.2-0.9-0.1l0,0c-0.3-0.3-0.3-0.7-0.1-0.9
		l10.2-10.9C2445.3-1086.2,2445.7-1086.2,2446-1085.9L2446-1085.9z"/>
</g>
<g class="st0">
	<path class="st1" d="M-481.7-2470.3c-0.2,0.3-0.6,0.4-0.9,0.3l-4.2-3.3c-0.2-0.2-0.2-0.6,0-0.9l0,0c0.2-0.3,0.6-0.4,0.9-0.3
		l4.2,3.3C-481.4-2471-481.4-2470.6-481.7-2470.3L-481.7-2470.3z"/>
	<path class="st1" d="M-471.7-2481.9c0.3,0.3,0.3,0.7,0.1,0.9l-10.2,10.9c-0.2,0.2-0.6,0.2-0.9-0.1l0,0c-0.3-0.3-0.3-0.7-0.1-0.9
		l10.2-10.9C-472.4-2482.2-472-2482.2-471.7-2481.9L-471.7-2481.9z"/>
</g>
<g class="st0">
	<path class="st1" d="M595.9,368.6c-0.2,0.3-0.6,0.4-0.9,0.3l-4.2-3.3c-0.2-0.2-0.2-0.6,0-0.9l0,0c0.2-0.3,0.6-0.4,0.9-0.3l4.2,3.3
		C596.2,367.9,596.2,368.3,595.9,368.6L595.9,368.6z"/>
	<path class="st1" d="M605.9,357c0.3,0.3,0.3,0.7,0.1,0.9l-10.2,10.9c-0.2,0.2-0.6,0.2-0.9-0.1l0,0c-0.3-0.3-0.3-0.7-0.1-0.9
		L605,357C605.2,356.7,605.6,356.7,605.9,357L605.9,357z"/>
</g>
<g class="st0">
	<path class="st1" d="M-2385.8,356.6c-0.2,0.3-0.6,0.4-0.9,0.3l-4.2-3.3c-0.2-0.2-0.2-0.6,0-0.9l0,0c0.2-0.3,0.6-0.4,0.9-0.3
		l4.2,3.3C-2385.6,355.9-2385.6,356.3-2385.8,356.6L-2385.8,356.6z"/>
	<path class="st1" d="M-2375.8,345c0.3,0.3,0.3,0.7,0.1,0.9l-10.2,10.9c-0.2,0.2-0.6,0.2-0.9-0.1l0,0c-0.3-0.3-0.3-0.7-0.1-0.9
		l10.2-10.9C-2376.5,344.7-2376.1,344.7-2375.8,345L-2375.8,345z"/>
</g>
<g class="st0">
	<path class="st1" d="M-2385.8-1024.6c-0.2,0.3-0.6,0.4-0.9,0.3l-4.2-3.3c-0.2-0.2-0.2-0.6,0-0.9l0,0c0.2-0.3,0.6-0.4,0.9-0.3
		l4.2,3.3C-2385.6-1025.3-2385.6-1024.9-2385.8-1024.6L-2385.8-1024.6z"/>
	<path class="st1" d="M-2375.8-1036.2c0.3,0.3,0.3,0.7,0.1,0.9l-10.2,10.9c-0.2,0.2-0.6,0.2-0.9-0.1l0,0c-0.3-0.3-0.3-0.7-0.1-0.9
		l10.2-10.9C-2376.5-1036.5-2376.1-1036.5-2375.8-1036.2L-2375.8-1036.2z"/>
</g>
<g class="st0">
	<path class="st1" d="M596.5-1024.6c-0.2,0.3-0.6,0.4-0.9,0.3l-4.2-3.3c-0.2-0.2-0.2-0.6,0-0.9l0,0c0.2-0.3,0.6-0.4,0.9-0.3l4.2,3.3
		C596.7-1025.3,596.7-1024.9,596.5-1024.6L596.5-1024.6z"/>
	<path class="st1" d="M606.5-1036.2c0.3,0.3,0.3,0.7,0.1,0.9l-10.2,10.9c-0.2,0.2-0.6,0.2-0.9-0.1l0,0c-0.3-0.3-0.3-0.7-0.1-0.9
		l10.2-10.9C605.8-1036.5,606.2-1036.5,606.5-1036.2L606.5-1036.2z"/>
</g>
<g class="st0">
	<path class="st1" d="M-921.7-1024.6c-0.2,0.3-0.6,0.4-0.9,0.3l-4.2-3.3c-0.2-0.2-0.2-0.6,0-0.9l0,0c0.2-0.3,0.6-0.4,0.9-0.3
		l4.2,3.3C-921.4-1025.3-921.4-1024.9-921.7-1024.6L-921.7-1024.6z"/>
	<path class="st1" d="M-911.7-1036.2c0.3,0.3,0.3,0.7,0.1,0.9l-10.2,10.9c-0.2,0.2-0.6,0.2-0.9-0.1l0,0c-0.3-0.3-0.3-0.7-0.1-0.9
		l10.2-10.9C-912.4-1036.5-912-1036.5-911.7-1036.2L-911.7-1036.2z"/>
</g>
<g class="st0">
	<path class="st1" d="M1036-2646.3c-0.2,0.3-0.6,0.4-0.9,0.3l-4.2-3.3c-0.2-0.2-0.2-0.6,0-0.9l0,0c0.2-0.3,0.6-0.4,0.9-0.3l4.2,3.3
		C1036.3-2647,1036.3-2646.6,1036-2646.3L1036-2646.3z"/>
	<path class="st1" d="M1046-2657.9c0.3,0.3,0.3,0.7,0.1,0.9l-10.2,10.9c-0.2,0.2-0.6,0.2-0.9-0.1l0,0c-0.3-0.3-0.3-0.7-0.1-0.9
		l10.2-10.9C1045.3-2658.2,1045.7-2658.2,1046-2657.9L1046-2657.9z"/>
</g>
<g class="st0">
	<path class="st1" d="M-3549.8-4066.3c-0.2,0.3-0.6,0.4-0.9,0.3l-4.2-3.3c-0.2-0.2-0.2-0.6,0-0.9l0,0c0.2-0.3,0.6-0.4,0.9-0.3
		l4.2,3.3C-3549.6-4067-3549.6-4066.6-3549.8-4066.3L-3549.8-4066.3z"/>
	<path class="st1" d="M-3539.8-4077.9c0.3,0.3,0.3,0.7,0.1,0.9l-10.2,10.9c-0.2,0.2-0.6,0.2-0.9-0.1l0,0c-0.3-0.3-0.3-0.7-0.1-0.9
		l10.2-10.9C-3540.5-4078.2-3540.1-4078.2-3539.8-4077.9L-3539.8-4077.9z"/>
</g>
<g class="st0">
	<path class="st1" d="M-1977.7-4066.3c-0.2,0.3-0.6,0.4-0.9,0.3l-4.2-3.3c-0.2-0.2-0.2-0.6,0-0.9l0,0c0.2-0.3,0.6-0.4,0.9-0.3
		l4.2,3.3C-1977.4-4067-1977.4-4066.6-1977.7-4066.3L-1977.7-4066.3z"/>
	<path class="st1" d="M-1967.7-4077.9c0.3,0.3,0.3,0.7,0.1,0.9l-10.2,10.9c-0.2,0.2-0.6,0.2-0.9-0.1l0,0c-0.3-0.3-0.3-0.7-0.1-0.9
		l10.2-10.9C-1968.4-4078.2-1968-4078.2-1967.7-4077.9L-1967.7-4077.9z"/>
</g>
<g class="st0">
	<path class="st1" d="M-4971.8-4066.3c-0.2,0.3-0.6,0.4-0.9,0.3l-4.2-3.3c-0.2-0.2-0.2-0.6,0-0.9l0,0c0.2-0.3,0.6-0.4,0.9-0.3
		l4.2,3.3C-4971.6-4067-4971.6-4066.6-4971.8-4066.3L-4971.8-4066.3z"/>
	<path class="st1" d="M-4961.8-4077.9c0.3,0.3,0.3,0.7,0.1,0.9l-10.2,10.9c-0.2,0.2-0.6,0.2-0.9-0.1l0,0c-0.3-0.3-0.3-0.7-0.1-0.9
		l10.2-10.9C-4962.5-4078.2-4962.1-4078.2-4961.8-4077.9L-4961.8-4077.9z"/>
</g>
<g>
	<g>
		<path class="st2" d="M107,168.5l0.9-9.9c-21.8-2-25-6.5-25.4-7.8c-0.4-1.1-0.3-3.9,4.7-10.3c4.4-5.6,11.2-12.3,18.4-19.4
			c1.8-1.8,3.6-3.5,5.4-5.4l-7-7.1c-1.8,1.8-3.6,3.6-5.4,5.3c-7.5,7.3-14.5,14.3-19.3,20.4c-3.9,5-8.8,12.5-6.2,19.8
			C75.9,162.2,86.4,166.6,107,168.5z"/>
	</g>
	<polygon class="st3" points="95.8,133.8 84.7,124.5 95.8,113.4 	"/>
</g>
<g>
	<path class="st4" d="M197.3,168.5l-0.9-9.9c21.8-2,25-6.5,25.4-7.8c0.4-1.1,0.3-3.9-4.7-10.3c-4.4-5.6-11.2-12.3-18.4-19.4
		c-1.8-1.8-3.6-3.5-5.4-5.4l7-7.1c1.8,1.8,3.6,3.6,5.4,5.3c7.5,7.3,14.5,14.3,19.3,20.4c3.9,5,8.8,12.5,6.2,19.8
		C228.4,162.2,217.9,166.6,197.3,168.5z"/>
</g>
<g>
	<path class="st2" d="M197.3,168.5l-0.9-9.9c21.8-2,25-6.5,25.4-7.8c0.4-1.1,0.3-3.9-4.7-10.3c-4.4-5.6-11.2-12.3-18.4-19.4
		c-1.8-1.8-3.6-3.5-5.4-5.4l7-7.1c1.8,1.8,3.6,3.6,5.4,5.3c7.5,7.3,14.5,14.3,19.3,20.4c3.9,5,8.8,12.5,6.2,19.8
		C228.4,162.2,217.9,166.6,197.3,168.5z"/>
</g>
<polygon class="st3" points="208.4,133.8 219.6,124.5 208.4,113.4 "/>
<g>
	<path class="st5" d="M277.3,185.3H28.1c-2.9,0-5.3-2.4-5.3-5.3l0,0c0-2.9,2.4-5.3,5.3-5.3h249.2c2.9,0,5.3,2.4,5.3,5.3l0,0
		C282.6,182.9,280.2,185.3,277.3,185.3z"/>
</g>
<g>
	<g>
		<path class="st6" d="M114.6,65c0,0-8.7-31.1-1.7-50c3.8,9.1,12.2,13.3,28.9,6.1c11.9-5.1,34-13,38.7,5.4
			c20.8-8.7,10.3,38.4,10.3,38.4L114.6,65z"/>
	</g>
	<g>
		<path class="st7" d="M114.6,65.9c-0.4,0-0.7-0.3-0.8-0.6c0-0.1-2.2-7.9-3.5-18c-1.7-13.6-1.1-24.5,1.9-32.5
			c0.1-0.3,0.4-0.5,0.8-0.5c0.4,0,0.7,0.2,0.8,0.5c1.7,4.1,4.3,6.8,7.6,8.2c4.9,2,11.7,1.1,20.2-2.6c14.7-6.4,25.2-7.8,32-4.5
			c3.7,1.8,6.2,5,7.6,9.5c3.6-1.3,6.5-1,8.7,0.8c8.8,7.3,2.1,37.6,1.8,38.9c-0.1,0.4-0.4,0.7-0.8,0.7L114.6,65.9
			C114.6,65.9,114.6,65.9,114.6,65.9z M113,17.3c-5.2,17,1.1,42.6,2.2,46.9l74.9-0.1c0.9-4.5,5.9-30.4-1.4-36.6
			c-1.9-1.6-4.5-1.7-7.9-0.2c-0.2,0.1-0.5,0.1-0.7,0c-0.2-0.1-0.4-0.3-0.4-0.5c-1.2-4.5-3.5-7.6-6.9-9.3c-9.4-4.6-25.4,2.3-30.6,4.5
			c-9,3.9-16.2,4.7-21.5,2.6C117.5,23.2,114.9,20.8,113,17.3z"/>
	</g>
</g>
<g>
	<circle class="st8" cx="190.7" cy="70.1" r="6.3"/>
</g>
<g>
	<path class="st7" d="M190.7,77.2c-4,0-7.2-3.2-7.2-7.2c0-4,3.2-7.2,7.2-7.2c4,0,7.2,3.2,7.2,7.2C197.9,74,194.7,77.2,190.7,77.2z
		 M190.7,64.6c-3,0-5.5,2.5-5.5,5.5c0,3,2.5,5.5,5.5,5.5c3,0,5.5-2.5,5.5-5.5C196.2,67,193.8,64.6,190.7,64.6z"/>
</g>
<g>
	<circle class="st8" cx="114.6" cy="70.1" r="6.3"/>
</g>
<g>
	<path class="st7" d="M114.6,77.2c-4,0-7.2-3.2-7.2-7.2c0-4,3.2-7.2,7.2-7.2c4,0,7.2,3.2,7.2,7.2C121.8,74,118.6,77.2,114.6,77.2z
		 M114.6,64.6c-3,0-5.5,2.5-5.5,5.5c0,3,2.5,5.5,5.5,5.5c3,0,5.5-2.5,5.5-5.5C120.1,67,117.6,64.6,114.6,64.6z"/>
</g>
<g>
	<path class="st8" d="M188.6,110.2h-71.9v-61c0-0.1,0-0.3,0-0.4c0.3-3.9,4.2-6.5,8-5.4c4.6,1.3,18,4.8,28,4.8s23.4-3.5,28-4.8
		c3.8-1.1,7.7,1.5,8,5.4c0,0.1,0,0.3,0,0.4V110.2z"/>
</g>
<g>
	<path class="st7" d="M189.5,111h-73.6V49.1c0-0.2,0-0.3,0-0.5c0.1-2.1,1.2-3.9,2.9-5.1c1.8-1.3,4-1.6,6.1-1
		c4.9,1.4,17.4,4.8,27.7,4.8c10.3,0,22.8-3.3,27.7-4.8c2.1-0.6,4.3-0.2,6.1,1c1.7,1.2,2.8,3.1,2.9,5.1c0,0.2,0,0.3,0,0.5V111z
		 M117.6,109.3h70.2V49.1c0-0.1,0-0.3,0-0.4c-0.1-1.5-0.9-2.9-2.2-3.9c-1.4-1-3.1-1.2-4.7-0.8c-5,1.5-17.6,4.8-28.2,4.8
		c-10.6,0-23.2-3.4-28.2-4.8c-1.6-0.5-3.3-0.2-4.7,0.8c-1.3,0.9-2.1,2.3-2.2,3.9c0,0.1,0,0.2,0,0.4V109.3z"/>
</g>
<g>
	<path class="st9" d="M204.6,174.7H100.8c-2.8,0-5-2.2-5-5V104c0-2.8,2.2-5,5-5h103.8c2.8,0,5,2.2,5,5v65.6
		C209.6,172.4,207.3,174.7,204.6,174.7z"/>
</g>
<g>
	<path class="st10" d="M205.3,99H100c-2.3,0-4.2,1.9-4.2,4.2v3.3c0-2.3,1.9-4.2,4.2-4.2h105.4c2.3,0,4.2,1.9,4.2,4.2v-3.3
		C209.6,100.9,207.7,99,205.3,99z"/>
</g>
<g>
	<path class="st7" d="M205.3,175.5H100c-2.8,0-5.1-2.3-5.1-5.1v-67.2c0-2.8,2.3-5.1,5.1-5.1h105.4c2.8,0,5.1,2.3,5.1,5.1v67.2
		C210.4,173.2,208.1,175.5,205.3,175.5z M100,99.9c-1.9,0-3.4,1.5-3.4,3.4v67.2c0,1.9,1.5,3.4,3.4,3.4h105.4c1.9,0,3.4-1.5,3.4-3.4
		v-67.2c0-1.9-1.5-3.4-3.4-3.4H100z"/>
</g>
<g>
	<path class="st7" d="M245.8,175.5H58.9c-0.5,0-0.8-0.4-0.8-0.8c0-0.5,0.4-0.8,0.8-0.8h186.9c0.5,0,0.8,0.4,0.8,0.8
		C246.7,175.1,246.3,175.5,245.8,175.5z"/>
</g>
<g>
	<path class="st7" d="M51.5,175.5H32c-0.5,0-0.8-0.4-0.8-0.8c0-0.5,0.4-0.8,0.8-0.8h19.4c0.5,0,0.8,0.4,0.8,0.8
		C52.3,175.1,52,175.5,51.5,175.5z"/>
</g>
<g>
	<path class="st7" d="M273.7,175.5h-19.4c-0.5,0-0.8-0.4-0.8-0.8c0-0.5,0.4-0.8,0.8-0.8h19.4c0.5,0,0.8,0.4,0.8,0.8
		C274.6,175.1,274.2,175.5,273.7,175.5z"/>
</g>
<text transform="matrix(1 0 0 1 131.4716 65.5853)" class="st7 st11 st12">x</text>
<text transform="matrix(1 0 0 1 164.6904 65.5853)" class="st7 st11 st12">x</text>
<path class="st7" d="M164.7,77.4h-26.3c-0.4,0-0.8-0.3-0.8-0.8l0,0c0-0.4,0.3-0.8,0.8-0.8h26.3c0.4,0,0.8,0.3,0.8,0.8l0,0
	C165.5,77,165.1,77.4,164.7,77.4z"/>
<circle class="st10" cx="154.9" cy="136.3" r="8.1"/>
</svg>
