<svg xmlns="http://www.w3.org/2000/svg" width="70.5" height="70.5" viewBox="0 0 70.5 70.5"><style>.a{fill:none;stroke-width:2;stroke:#1F85AD;}.b{fill:#1F85AD;}</style><circle cx="35.399" cy="35.321" r="32.962" class="a"/><path d="M68.732 31.285C66.978 14.439 52.736 1.306 35.425 1.306c-18.495 0-33.956 15.521-33.956 34.016 0 1.061 15.445 0.322 20.528-7.192 0 0 8.887 7.192 11.472 10.265 0 0 7.717-5.34 12.478-13.686 0 0 7.843 5.756 9.057 9.157 0 0 5.871-5.636 6.642-12.378L68.732 31.285z" fill="#1E85AD"/><circle cx="50.772" cy="44.211" r="3.882" class="b"/><circle cx="19.999" cy="44.211" r="3.882" class="b"/><path d="M60.418 46.204c0 3.025-2.451 5.475-5.475 5.475h-9.145c-3.025 0-5.475-2.449-5.475-5.475v-4.302c0-3.024 2.449-5.274 5.475-5.274h9.145c3.023 0 5.475 2.451 5.475 5.476V46.204z" class="a"/><path d="M30.046 46.261c0 3.025-2.451 5.475-5.477 5.475h-9.143c-3.023 0-5.477-2.449-5.477-5.475V42.16c0-3.024 2.453-5.476 5.477-5.476h9.143c3.026 0 5.477 1.914 5.477 5.476V46.261z" class="a"/><path d="M30.104 44.337c1.652-2.093 2.179-2.384 4.89-2.384 2.448 0 3.996 1.16 5.191 2.897" class="a"/></svg>